<mxfile host="app.diagrams.net" modified="2020-10-04T09:08:29.582Z" agent="5.0 (Windows NT 10.0; WOW64) AppleWebKit/537.36 (KHTML, like Gecko) Chrome/84.0.4147.135 Safari/537.36 OPR/70.0.3728.189 (Edition Yx)" etag="8aDpbkojzQ_Tc-_STEFz" version="13.7.7" type="github">
  <diagram id="2c4ChzABgp76Fuv3pyyX" name="Page-1">
    <mxGraphModel dx="1426" dy="829" grid="1" gridSize="10" guides="1" tooltips="1" connect="1" arrows="1" fold="1" page="1" pageScale="1" pageWidth="827" pageHeight="1169" math="0" shadow="0">
      <root>
        <mxCell id="0" />
        <mxCell id="1" parent="0" />
        <mxCell id="I8OUwgIoea2aEwMqdT0k-1" value="Домашняя страница" style="rounded=0;whiteSpace=wrap;html=1;" vertex="1" parent="1">
          <mxGeometry x="589.33" y="15" width="140" height="40" as="geometry" />
        </mxCell>
        <mxCell id="I8OUwgIoea2aEwMqdT0k-2" value="" style="shape=image;verticalLabelPosition=bottom;labelBackgroundColor=#ffffff;verticalAlign=top;aspect=fixed;imageAspect=0;image=data:image/png,iVBORw0KGgoAAAANSUhEUgAAApEAAAF1CAYAAACwFrHCAAAgAElEQVR4Ae2dC5QkV3nfKxjj5BBkHiE6sU/YnX7NYyXinDUT7xLCAfMwwSYGGzgIsIfX4BBs4mBjaQUIJMEswqCVkFZCILTCIAQjCb0YkBYZViAQIIaHiAQsQhFYkVEIDHIIECy+nHt7qru6qrq7qrse97v9m3NmZ7a7qvrW7/6mv3/fW4+g1ZkXviAAAQhAAAIQgAAEIJCVQHtxUYL2/ELW5VkOAhCAAAQgAAEIQAACYkMkI5GYAAEIQAACEIAABCCQh0BnaUmCZruTZx2WhQAEIAABCEAAAhCYcQJ2JJIQOeMWsPsQgAAEIAABCEAgJwEbIhutds7VWBwCEIAABCAAAQhAYJYJ2OlsTqyZZQXYdwhAAAIQgAAEIJCfwPzSLgk6C4v512QNCEAAAhCAAAQgAIGZJbCw67jpTqz5x/vvl68f/Y586KpPyRvedqn8yV+db7/3n3O5XHP95+XO7/z9zMJlxyEAAQhAAAIQgICvBOx0dmOCs7N/8tOfybf+xz3yrksOy5Ufu0VuvPkb8vkv3SFfuvVO2fzqnfK5zTvkkzfdLld85PNy0aU3yD3f+4H8/Of/6CtH9gsCEIAABCAAAQjMFAGTH4NWzouNf+9/bcnNX/ymXLHxOXnf5Z+SIzd/U75xx71yz/fukx9u/cR+333PffLfv3GP3PCp2+Ti9Rvl8mtvlltvv0t+dN+PZwowOwsBCEAAAhCAAAR8JLCz2ZKgmeO2hz/7fz+Xz9zyDTn/vYflvZfdJF/7+t/L1277rtz+zXvkm3fcK1/80lHZuO5G+fKtd8odd/1AvnXnD2Tza3fLwUOH5dAHPyFfve1Ouf/++31kyT5BAAIQgAAEIACBmSFg8mOQ544137n7XvnAlZ+Wsy88LF+89R655db/Ke//4HVy2VU3ynV/+2U56+D75ElP+T05eMEH5aYvfNsuY5b7wlfvltMPXCGXXHGj/O8f3jczgNlRCEAAAhCAAATKIxAEgeT5Lq8l5W/Z7Octt9wy9oXMMmbZsr86i0v5QuS5hzbkjIMfkSuvv00Of/oO2fjE1+XZz3upPOvZK/LqE9fkhS/+M3nowx4hT3nas+Tt514qh2/6tlz/qTvkw9d9Wf7mw5+XM867Vi669OOT79fG6qAsqxuD24o/b+SKLzO4Bv+DAAQgAAEIQEApgTxhKc+yLuIIw+GoIJllmaL2bd6EyKzT2d//wX1y1rs3ZP/Bj8ml135NLrn6K/K2g1fKb+x+rDxqR0ue/B+fIy995SnykGMeJkvH/6b8t30H5ND6zXL6294vL3nFa+XMCzbktANXy1kXXCO/+MUvJtiHo3Jg9YAc7a25IatBIHsP9B8REyIJjT1C/AIBCEAAAhDwmUCeYJhnWVeZjQqJo54rY3/sdSKzhsgvfOWo/PU7PyZvOvewnP+BW+Tc939O3vC2y+XRux8vD3vEsbL7t54srzr5oCz/+6fL0561Kq859ZC8/q0flCc+9TmycNxj5NWvf6ecfMaH5YyDV8v37v1BIftz9MBeCfb2g6X9PyGyELZsBAIQgAAEIOA6gTzBMM+yLu93WlhMe6zsfVg87vjs09kXfuCwnPaOj8rrD1wnpx88LKeec52cds718swXvFr2POFZ8rvP/VPZ99Yr5L/sO19OfMu6vOGsDfnjV+6Xhz78X8oxD/0X8uJXvVVOPOMqOf0dV8uNn/ly+r6lTUePmpI2yxMi01nyKAQgAAEIQMBzAnmCYZ5lXccWDY3R36tst73YeNZL/PzZay+Q1521IfvOvFZe+boL5cV//nZ5zf51OfXgDbL/PZ+R/e/5rLzpgiPyxnMP2++/3L8uv3fCn8s//9WHy6/vXJCXn3SevP6cG+SUA9fIuRdekWk/4yON8ZU2VgePebTLRw+yZVQyjoz/QwACEIDADBAwgSnPt1YkeYJhnmU18AjDo9kv83vVX+aOh5mPidz3pgvlpLM35DXvuE6e/Z9PlYc+4lj59blFeeZLXyevOXtD/uoc8/hp8pgnPEt+47FPk2e86ER52eveLX/wJ2+UlRMPyr7zbpCTDn5STj7zKnnnRevj9/XoAdkb7JXoIY/RlbqBcVVip9ZEFukeM8kxkhEk/AoBCEAAAhDwiECeYJhnWQ2Iag+R9sSajHesueyaI/La866XVx08In/0hotl7tF75Z8++BjZted35HknnifPP/ld8mtzS/KQhz1SHnzMw+VfzS3Kv33CM+V3X/5GedX5n5CT3v8leeXZH5eTz75KPv2ZL47pn6NyYG/spJnIGnYEMhgVILcXttPjGZaLbJtfIQABCEAAAhDQQSBPMMyzrOt7HwZI8zP6e5XtznXv7KPf/jt57cENefFZN8jL332TPP0vzpZdT36u/IcXnSzP+Mtz5bHPfZU84Jce2Bs+f8ADHygPecSx0vl3T5bnv/lD8qd/sykv3H+NnPT2dfnevd8fuZ/Dp7G74TLz6KIdzSREjoTNkxCAAAQgAAGlBPIEwzzLuowjLTSmPVb2PtjrRGa9d/bPfvZzOfXcK+V5+6+Wl116u6xe9g159tkfkz8+9AV52r53yc7HPKkXIE1HBcE/kQf88oPkmF+bk6ee9E55/nk3ynPfcKmcdtaloy/xY0cP06ex48dAjgXESORYRCwAAQhAAAIQ0EogTzDMs6yrPEaFxVHPlbE/bXNMpLn3Ydav97zvI7Jy+qXyzPM+Ky+85u/kjz5yt/1+3GsOyiMXdssDfvlX5Jce9CvywH/2YHnQMQ+XX90xL62nPE+ecf4n5WlvvlZeduoh+eDlw49iFEm59mPYuDHHSIrEriNplx8+JR5ulp8QgAAEIAABCOgkkCcY5lnWRRpZQmKWZYraN3NidjCXI0Ru/egf5KyLPyqP/6/vlt+/4i559se/L8/5xA/lKRd+Wo57yevkkf9mrxz7m0+U5n96iez+i7Pkt8//W3nGFd+Sp1/8NXnCK86Wcy66Wn70o+G3Pewe65hyRpk5y3o7FBoJ4t/dk7C3p7ojz3NydlGqsB0IQAACEICAewTieWDc/93bg+wtMvtmQuK4rzBIjltu2ue7IbKRfSTS3Gnmq7d9W/ZfcJU8/pXnyRPO+aw89aP3ylMOf18ef9nX5bfe9SnZc+FN8rhLviJPvPLb8tvr35LHv/Xj8sRXnCVvfeflcutt3xo9lT3tHrE+BCAAAQhAAAIQgEDpBOx0dp6RSNOiH//4/8qtt90hZ190rbzgzZfKE998tex9+yfksRfcIo9739flce+9TR573udk718flieddrm86LT3yjnvuVJuve2oXbf0veIFIAABCEAAAhCAAARKJWBDZDPjJX6iLTEjkvf9w/+RSy77mOx7y8WyeurF8sK1dfnDM66WP9z/YXnB6ZfIy15/obz2LRfJh6++XrZ+dJ/cf//90U3wOwQgAAEIQAACEICAUgLtxUUJGq32VM3/6U9/KnfffY/c9JnPy3ve+yE59L51+fRNN8t3v/td+clPfjLVtlkZAhCAAAQgAAEIQMA9AnYkstWed69ltAgCEIAABCAAAQhAwFkCrYUFCdrzC842kIZBAAIQgAAEIAABCLhHwFxnPGAk0r2OoUUQgAAEIAABCEDAZQJMZ7vcO7QNAhCAAAQgAAEIOEqgGyI7HBPpaP/QLAhAAAIQgAAEIOAkgc7SkgQtQqSTnUOjIAABCEAAAhCAgKsEFo8/XoJJrhPp6g7RLghAAAIQgAAEIACB8gksHnc8J9aUj5lXgAAEIAABCEAAAn4R6Cwyne1Xj7I3EIAABCAAAQhAoAIC9hI/ee+dXUG7eAkIQAACEIAABCAAAYcJNDvzEsxNedtDh/ePpkEAAhCAAAQgAAEIlEBg6fhHS2CGI/mCAAQgAAEIQAACEIBAVgKt+QUJdjZbWZdnOQhAAAIQgAAEIAABCIi92DjT2ZgAAQhAAAIQgAAEIJCHwMLSLgkaHBOZhxnLQgACEIAABCAAgZknYEcidzSaMw8CABCAAAQgAAEIQAAC2Qks7jpu0rOzN2Q1WJWN7K+VWHJjNZA9Zx7dftxsL5DVaTaYeIVsDxw9c48EQRD5nm6/sr2qnqWSfKL9pmc/aCkEIAABCEAAAsURWDAhMtfZ2UfPlD0DgcuErz3Sy4K52tYNjmGA6wfKXBuZYuGjcuYe0/5YaNxYrSXMTrEjpa5qQ2Q03W87EH2o1AawcQhAAAIQgAAEnCOwcFyekciN1UhgjIxEKg0VNhztOVPCsVDneseRBiVCpIiYUeSAFOlID9EMCEAAAhCAQPUE7EhktrOz49PNkRApIolAFh+xjIU1E0IGM8j2qODggyatRKaZAwli25kcWXx/0rdkw1Ji5HUwQIXT8pZBuGy8nRl4hCOy4c8+ii6b+P97I6hjtp2+Z9kfHRYioyPHIYO0rUbX7zKKjvwm+32Ao+HZ3/H+5mNeRNvSX4jfIAABCEAAAhAoi0D26WwbVKLFfzBEin2+P6199MzVyBR3MijEQ2QvOMQDgwkL24/ZZeLhbFIyNoRE9yd9Q2nhyLYj0k6zjAl+/SCT3N8sPPrr26G+SGAeDJH29SIcxm07fc+yPxrf326wH2SXxil8hcH1u/sS7mu8T+3/Bw4vSLK02414Meq1wzbwEwIQgAAEIACBYgksHnd8xhNrEqErFiJlzMieWT8SfEzh7+WwMICe2Q+M4W5GA0g8cITLTPQzsT/pW0kLKNE2mbXMMmHQ7W0l3Kdhc+UpPMJgZbYxuK/9EGlfK8Kx93rRX2Lbjj41ye+2LeEI6/bPXt9tbzCNU/hacV7dDxwmhBpn+h88JPH/7S0kPsB0+YS8Rr122AZ+QgACEIAABCBQLIHsx0QmCnksRKaEpkT4iIQfU/i7QSQyMmXCTyydRAPCYLCaEkTBITIMNP1WxQPSdjCMhrEYj3Aa2/4c4LDNaI85i3xwBDB8vVGsw2Um/ZkIgZIcHTT9NND+yJn2yfW3g3d8qnponyRZ9v3pbivJf9K9ZT0IQAACEIAABLIQyD6dvR0c+tlmMEQOBjzzXOz4xdjoWBgCBtZLhMj+CJzZmYFls+zdqGVSQm/a4tEQGz4fD0VpywyOqmXjMRCEBgJVNERGR+5Mi8ZvO2z3pD/j+2u3E+OXYBBpf9r69rGBQwC2p/BTQ7LZx+h+D/4/8dqT7ijrQQACEIAABCCQmYANkc3OfLYVbDAIi7kp5NujYgOP27Qne8LntrdsQ0Ns5G11NXq293aI6KfU7YDUH3mLbyNbo4ctlRxNS1syLaDEQ5FZJj6COnDcYGIUNxmIk68TDUr9MN0NX2EfZGOdtl95Hovvr103tk+j2p9YP1w3FkTjx9X22hguHz5gfIu5NBDAw+X4CQEIQAACEIBAaQQ6S0slXCcyNRwMjkza4JU2EhUJkfHwYf8fCQ/TUzFBbbBddpuR60Qmw9F2AIy0M9yX/kPd7faCTUYeveVNIyIjeRIbBbYcwpCeYdvTcor3Q9ieaHBOcIq0f3D97VHV7QuLxvu0y7L/wSF8rT6bfqAO9yvx2uET/IQABCAAAQhAoDQCOaaz422IjETGnwqnnsPj/0zwSxk9io4m2U2YZWwS2x4lDIPS9vbjgSPlZSd4KHytyDF9kaCaFlAGQ1F4TN7G9oXLt7fTT5S2TXadcTzC5+3PyGhjLESaDXbDVve40nHbngDKwCoD2w/bGNu/sD3R4yLDRaK87HIRvuF0fD8kJo8d7T+X0ldhe+IfSAb2gP9AAAIQgAAEIFA0gXzT2UW/uifbSwuanuyaY7thQmQ0XPebZ4JqP2z2H+c3CEAAAhCAAATKITC/tCvndHY57VC9VUJkVd1HiKyKNK8DAQhAAAIQGEfAhsjMJ9aM29qMPk+InNGOZ7chAAEIQAACM0ygvbAoQSvr2dkzDIpdhwAEIAABCEAAAhDoE2jNL0jQaLX7j/AbBCAAAQhAAAIQgAAExhBoLy5KYKaz77vvPr5hgAM4gAM4gAM4gAM4kMmB5vx898Sara0t4RsGOIADOIADOIADOIADWRyw09lmJDLLwiyDVDiAAziAAziAAziAA8YBe2INIRIZeEPAARzAARzAARzAgTwO2BDZ6HQYiWQ6HwdwAAdwAAdwAAdwILMD3bOzCZGZgeVJ6CzLJzocwAEcwAEcwAFfHSBE8omDAI0DOIADOIADOIADuR3oLC5JwHQ2n5J8/ZTEfuE2DuAADuAADpTjQO+2hwAuBzBc4YoDOIADOIADOOCjA3YkkrOzkdtHudknvMYBHMABHMCB8hzgEj8cA5H7GAj+IMv7g4QtbHEAB3AAB7Q4sLDruO5tD7U0mHbyx4UDOIADOIADOIAD9TuwdPyjCZGIWL+I9AF9gAM4gAM4gAO6HLAjkS1ue8iULtP6OIADOIADOIADOJDDAXtijblYJOlfV/qnv+gvHMABHMABHMCBOh0gROZI3HV2FK/NGwUO4AAO4AAO4IBLDnSWliRgOhspXZKStuAjDuAADuAADrjvQHckkmMimc5nRBYHcAAHcAAHcAAHcjjQvdh4qwO0HND4dOT+pyP6iD7CARzAARzAgXIdsCGyzYk1hGhCNA7gAA7gAA7gAA7kcMDesabVngdaDmh8sin3kw184YsDOIADOIAD7jvQWljgxBpEdV9U+og+wgEcwAEcwAG3HLAhstFqMxLJSCQO4AAO4AAO4AAO4EBmB9qLixL86x1zmVfgU4BbnwLoD/oDB3AAB3AAB3CgDge4TiSfOPgAgQM4gAM4gAM4gAO5HbAhst3htod1JHhek0+OOIADOIADOIADWh2YX9olAZf4QWCtAtNu3MUBHMABHMCBehywIZLbHtYDH+nhjgM4gAM4gAM4oNUBGyKbbe5Yo7UDaTdvPjiAAziAAziAA3U4YI+J5BI/yFeHfLwm3uEADuAADuCAXgeYzuZsrNxnY/EHr/cPnr6j73AAB3AAB4pywIbIhaVdBAnCJA7gAA7gAA7gAA7gQGYH7HQ2IZJPJUV9KmE7uIQDOIADOIADs+EAIZJPHJk/cfCmMBtvCvQz/YwDOIADOJDFgc7iEteJzAKKZfiDwgEcwAEcwAEcwIG+Awu7jpNgrtliNIoRSRzAARzAARzAARzAgcwO2BC5Y66ReQUSeD+BwwIWOIADOIADOIADs+rAXKstwaN2EiJnVQD2mzc/HMABHMABHMCBSRxotDsScMca5JlEHtbBGxzAARzAARyYXQfsdSLNP0gwuxLQ9/Q9DuAADuAADuBAXge6Z2cvLBIiOZAWB3AAB3AAB3AAB3AgswN2JJLpbD595P30wfI4gwM4gAM4gAOz7YANka35hcypE2FmWxj6n/7HARzAARzAARwwDtjp7GZnnhDJ8DUO4AAO4AAO4AAO4EBmB9oLixKYU7T5VMGnChzAARzAARzAARzAgawO2BBpLhaZdQWWQy4cwAEcwAEcwAEcwIGOGYnc0WgSIhm+xgEcwAEcwAEcwAEcyOyAPSaS6Ww+TfCJEgdwAAdwAAdwAAfyOGBHIjk7G2nySMOy+IIDOIADOIADOGDyY9Di7OzMQ7f80fBHgwM4gAM4gAM4gANb0vYlRO7bt0/4dofBrP1x4Z477pm+cM2/paUl4RsGOIADeR1w7b0s3h5vzs42hYMvNwi4WMTj4hf9f/xzwz3TChf9M4WDLwhAAAJ5CJj3jaJrVdHbM9cZD3w4JpIinkfNcpd1sYgX/YcT3x7+letUnq276B8hMk8PsiwEIGAIaAiR3RNrPDgmkiLuzh+di0U8HvqK/j/+4d8opwiR7vhBSyCghYCGEOnNHWso4u78WRAi3emLWWyJi/4RImfRRPYZAtMR0BAizYnZwc5my/l591Gf8s1zhMjpZC1ybReL+Dh/pn0e/4o0aLptuegfIXK6PmVtCMwiAQ0h0lxnnGMiZ9HOEvfZxSI+bUgctz4hskShcm7aRf8IkTk7kcUhAAEdx0QuLknQbHcYiUTYwgi4WMTHhcBpnydEFqbP1Bty0T9C5NTdygYgMHMENIxE2mMimy2fQ+RRObA3kNWNmfOvth12sYhPGxLHrT88ROJf1SK66B8hsmoLeD0I6CegIkSai42bU7THFUnXn08r4hurgQRB95sQWd0flItFvGx/8a86v8a9kov+ESLH9RrPQwACcQJqQmS109mbsrYcyMp6sbdMShTxjVUJglXZkA1ZDRiJjMtZ5v9dLOL9EIl/Zfa9C9t20T9CpAtm0AYI6CKgIkQuLEqws9GsZCRyfaU/Mlh6iOy5QojsoajoFxeLuAmR+FeRADW/jIv+ESJrloKXh4BCAhpCZMecWGNuoN0fqSl2hLC33fUVCYIVWd9al5WggpHInjCEyB6Kin5xsYhv4V9FvV//y7joHyGyfi9oAQS0EdAQIudNiCzimMjNteXtkBiG0O60YbCyHguoKSFyc02Wg2VZ2wzXzf/TFI70L0JkOpfyHq2jiNtRxphr1snlNdncivqEf+X1vBtbrsO/3oflAdf63hEi3XCDVkBAEwENIbLAkchuaFxe27ShMb2AmzdVirgmiSdpay1F3Iw0DgTGYcc+4t8kfappnVr8GxIew3BJiNRkEG2FgBsE1ITIVlHT2XZEMZyyHjaymFLEx7wBh2/Eo36awpH+xUhkOpfyHq2niBuvIs71XOyPBnX9wb/yet6NLdfjX9yzwf8TIt1wg1ZAQBMBNSGy2ZmPTTkPvgGOCm/x53onL8SmFvvLUcQ1STxJW+sq4sa9gZHwVAfxb5I+1bROXf713+OS75+ESE0G0VYIuEFARYg0Z2cXeYmf7rGR/WKefGOliLuhZ3mtqK2I96a0h01lm+KOf+X1vBtbrs2/ETMqhEg33KAVENBEQEOIbHXmJTA30E6GveSn6bHLhFOII0+UoYhrkniSttZXxI1by7K2bk7UModVpDmMf5P0qaZ16vMvzbfuY4RITQbRVgi4QUBDiLS3PSwmRLp6Yo0bMsxSK+os4nZKe3lZklcFCAt8Sogc+aEnXG/0T7PPfLlBoE7/hn3QJkS64QatgIAmAhpC5FyrLUERJ9bYYyEHzo7tFuvwGLX+mytFXJPEk7S11iI+NhDi3yR9qmmdWv1LHf3eEkKkJoNoKwTcIKAhRJpzaqq52PiQN9d+uBw90jNuOUaC3JDetKLWIt47LnI6n8b5Fn8e//Av7kT0/4RId/ygJRDQQkBDiLTT2UWenR1946zyd4q4O38W9YXIwUMq8M8dJ6psSX3+Df/gQois0gBeCwJ+EFATIouYzq6yYKe9FiHSnT+aOor4+EtLDS/waT7lfQz/Ztu/cb4QIt3xg5ZAQAsBDSHS3rGGEKlFKR3trCNEjiviZT9PiHTHTRf9I0S64wctgYAWAhpC5PzSLo6J1CKUlna6WMQJkVrsmb6dLvpHiJy+X9kCBGaNgIYQaUciOSZy1tQsd39dLOKEyHL73KWtu+gfIdIlQ2gLBHQQ0BAi7Yk17aLunV3yGdijgoApHHy7w2BUX/n4HO654x4hUkeBpJUQgMBoAmpCpLltjY+FnX0q92QS+MIXB7I5wEjk6GLJsxCAQJKAhhA5v7gkgbniOMUgWzGAE5xwAAfyOkCITBZIHoEABEYTUBEizYk1PhwTmfdNneUJAjiAA1U5QIgcXSx5FgIQSBLQECI7C4sSMJ1NMa2qmPI6uDaLDhAikwWSRyAAgdEENIRIc4nIQu6dPYuFgX0mEOEADmRxgBA5uljyLAQgkCSgJkQ22x2OiazxzPIsRYhlCCs4oNcBQmSyQPIIBCAwmoCGEGmu7sOJNQRIPkTgAA6U6AAhcnSx5FkIQCBJQE2IbHB2NgW0xALKCJreETT6rpi+I0QmCySPQAACowloCJH2mEims4spFBRcOOIADqQ5QIgcXSx5FgIQSBJQEyI5O5vCl1b4eAwvcKAYBwiRyQLJIxCAwGgCakKkD7c9pNgVU+zgCEccKN4BQuToYsmzEIBAkoCaEGnmtCkcxRcOmMIUB3DAOECITBZIHoEABEYTIERysgbhHAdwAAcIkaNrJc9CAAIpBAiRFA8CBA7gAA4QIlMKJA9BAAKjCWgIkfY6kUxnM+XGtCsO4EB5DjCdPbpY8iwEIJAkoCJEmntnNzvzjJYwWoIDOIADJTlAiEwWSB6BAARGE1ATIhvc9pDiWVLxZHSrvNEt2OphS4gcXSx5FgIQSBJQESLNbQ+5Y42eYkRwoK9wQJ8DhMhkgeQRCEBgNAEVIdJMZzMSqa8oESToMxzQ4wAhcnSx5FkIQCBJQEOI7HBMpJ5CRGigr3BApwOEyGSB5BEIQGA0ARUhcnFJgvbCovpjAo899ljh2x0GsxZ25ubmhG93GLjmHyFydLHkWQhAIElAQ4i0l/jpLC55ESKTXcAjdRAwYd61Il52e0yA5MsNAqYvyu7vvNsnRLrhBq2AgCYCKkKkmc42c9p53xRdW94EF77cIECIdKMfZrUVhMhZ7Xn2GwJ+EdAQIs11xgmRfnlX+94QImvvgpluACFyprufnYeANwQ0hEg7ne3LMZHemKN8RwiRyjtQefMJkco7kOZDAAKWgIYQac/O9uG2h0xnu/NXR4h0py9msSWEyFnsdfYZAv4R0BAi7XS2D7c9JES68wdEiHSnL2axJYTIWex19hkC/hHQECLtdDYh0j/56twjQmSd9HltQiQOQAACPhBQESLN2dl+T2cflQN7A1nd8EEpHftAiIz2E/5FaVTxOyGyCsq8BgQgUDYBDSHSXCLS2xC5sRpIEHS/CZFl697fPiGyywL/+k5U+RshskravBYEIFAWAQ0hsrpjItdXeoHOBruV9UKvTWmCy8DXxqoEwapsyIasBoxEDrAp+T9OhsiS/TPBZeAL/wZwVPkfQmSVtHktCECgLAIaQmT3mMh2p9BAl7wQ+aasrazJ5lZ439t1WQkCWV7bLOx1EyGy1/0Mli8AABvKSURBVKuEyB6Kin5xL0SW718iRPZY418PRUW/ECIrAs3LQAACpRJQESLNMZF1nFizubYswXI0WIYBc7KfhMhSXc61cfdCZNKpov0jROZSpNSFCZGl4mXjEIBARQTUhMhWZ37qEUFblIMVWe+NNm7K2nIgwbBpazO9GIbIzTVZDpZlbTNZ7JOjmunLECIrsjrDy9QRItdXkq6NDIoF+0eIzCBGRYsQIisCzctAAAKlEtAQIufNiTXFjER2Q2M4RT2ygG9tyUDRJ0SWKmLVG68jRG5FQ6H9INP1cWU9/UNH0f4RIqu2bPjrESKHs+EZCEBADwEVIXJplwSNoo6JtGHQjEaaYx6HjywmRy3TC33WUUizHCOR7vxh1BIi4871XEy6VYZ/hEh3/CNEutMXtAQCEJicgJoQWcxIZLdY2xEec1mdIdPY3eej097JIp8nPIbLEiInF7XoNesJkd3R7YGR8BQHy/KPEFm0RZNvjxA5OTvWhAAE3CGgIUTa60QWNhK5tSXdUZ60M6/HHCPZO5ZyslBJiHRH/LpCZH9KO20qu1z/CJHu+EeIdKcvaAkEIDA5AT0hstWe+sQaOyIYTiGmHOM4cAzalIExHH2M/iRETi5q0WvWFiLDKe11c6LW4Gh32f4RIou2aPLtESInZ8eaEICAOwT0hMhCjonsjvQMTCdmPfs6JXRGA2KW34eHSHeEmJWW1Bcit6e0l5cHD6cY59e45zN86BkeImel193ZT0KkO31BSyAAgckJaAiRbXudyAJCpB3pCUOjLbqRC4rbIt2/BWF4K0Lz0549W0ARJ0ROLmrRa9YZIrfSXKrAP0Jk0RZNvj1C5OTsWBMCEHCHgIYQ2b3tYQEhMstoYZnLECLdEb/WEJm41M9kx9jmdZUQ6Y5/hEh3+oKWQAACkxNQESIXFoq6TmQ1xXpYcSdETi5q0WvWFyIHD6kY5koZjxMii7Zo8u0RIidnx5oQgIA7BDSEyPbiogRF3LGmjMKcZ5uESHfEryNEdi/dM/zSUnlcmmRZQqQ7/hEi3ekLWgIBCExOQE2IbDKdPXkvs2aCQB0hcpLgV+Q6hMiEBrU9QIisDT0vDAEIFEhATYjc2WwVc4mfDGexFlm4o9tiJLJAc6fcFCFySoCsPhUBQuRU+FgZAhBwhICGEDlvbnu4o9EkRDoijQ/NIET60It694EQqbfvaDkEINAnoCFE2jvWzBV1sfGaRyJNeOHbDQbRUeJZ+N0EF77dYeCac6YY8AUBCEAgDwENIdJe4seHE2tcKxq0p96z9eEPf5ccIETmKZ0sCwEIGAIaQqS92Lj5x6U3XNpCAMABHPDJAUIkoQACEMhLQE2I7BAiCdE1HorgU1hgXwi/aQ4QIvOWT5aHAAT0hMjFJUIUIQoHcAAHSnKAEEkggAAE8hLQECK9ObEm7dM/jzEqhAM44IIDhMi85ZPlIQABDSHSHhPpwyV+XCgUtIHAggM4kOYAIZJAAAEI5CWgIUTakciGB5f4SXvj5jEKOg7ggAsOECLzlk+WhwAENIRIe4kfH2576EKhoA0EFhzAgTQHCJEEAghAIC8BDSHSzGQHDQ/unZ32xs1jFHQcwAEXHCBE5i2fLA8BCGgIkXPNlgTNzjxnZZZ0VqYLBYw2EKRwoF4HCJEEAghAIC8BDSHSTmdzsfF6CwwFHv444LcDhMi85ZPlIQABNSGSE2v8LmAEFPoXB+p1gBBJIIAABPIS0BAi2/MLEuyYazCdzXQ2DuAADpTkACEyb/lkeQhAQEOInF9ckqDRbFM8SioejADVOwIEf/i74AAhkkAAAQjkJaAhRJrbZgdc4odC60KhpQ146KsDhMi85ZPlIQABDSGye53IVoeRSEYicQAHcKAkBwiRBAIIQCAvAQ0hkpHIkoqGryMq7BejhTiQ3wFCZN7yyfIQgICaEMnZ2fmLAoUUZjiAA1kdIEQSCCAAgbwENIRIe3a2ueJ41jdDlqNw4gAO4EA+BwiRecsny0MAAipCpDmxhpHIfAWBAgovHMCBPA4QIgkEEIBAXgIaQqS5bTZnZ3NcJCPROIADJTpAiMxbPlkeAhDQECLt2dmMRDKqkmdUhWXxBQfyOUCIJBBAAAJ5CWgIkd2zs1tcbJyimK8owgteOJDdAUJk3vLJ8hCAgIYQ2ezMS9AkRDKVV+JUHmEje9iAlZ+sCJEEAghAIC8BDSHSHhPZ4OxsQiQhEgdwoDQHCJF5yyfLQwACGkKkvcQPx0T6OfrBqBb9igNuOECIJBBAAAJ5CWgIkfbEGq4T6UahoeDTDzjgpwOEyLzlk+UhAAE1IbLVmS9tGoei6GdRpF/pVxzI7gAhkkAAAQjkJaAiRJoTa3yYzt63b5/w7Q6DWQsYuOeOe6YvXPOPEJm3fLI8BCCgIUS2fbljjSkcfLlBwMUiXnaowD833DOtcNE/QqQ7ftASCGghoCFEdhaX/LhjDUXcnT8LF4s4IdIdP8puiYv+ESLL7nW2DwH/CGgIkXYkcsdcw7npn7xFnxDpzh+Qi0U8r095l8c//BvlDCHSHT9oCQS0ENAQIrsXG293CJFarFLQTkKkgk7yuIku+keI9Fg4dg0CJRHQECLNidle3LGGkaCSLJ5gsy4W8VGjREU8h38TiFLSKi76R4gsqbPZLAQ8JqAhRHJijccC1rVrLhbxIoLiqG0QIuuyLfm6LvpHiEz2E49AAAKjCRAiK7yNGkV8tIxVPutiER8VAIt4Dv+qNGz0a7noHyFydJ/xLAQgkCSgIkQuLvpznchkF5hHjsqBvYGsbqQ/y6PFE3CxiBcRFEdtY3iIxL/iDRu9RRf9I0SO7jOehQAEkgQ0hEh728OmpyfWbKwGEgTdb0JkUtCyHnGxiI8KgEU8lxYi8a8sw0Zv10X/CJGj+4xnIQCBJAENIdKend3yMURurEoQrMqGbMhqwEhkUs/yHnGxiBcRFEdtIxEi8a88wcZs2UX/CJFjOo2nIQCBBAE1IbLZant8iR9CZMLMkh9wsYiPCoBFPJcIkT3G+NdDUdEvLvpHiKyo83kZCHhEQEOInIGzsyniVf9NuVjEiwiKo7ZBiKzasuGv56J/hMjh/cUzEIBAOgENIdLe9rCS6ez1ld7xieY4xeW1zUJHPyni6RLW8aiLRXwL/+pQoZbXdNE/QmQtKvCiEFBNQEWIXFiUwFxxfNQoSxHPra+syHrvkj/rshIEsrK+VdjrEiLd+VtxsYjjnzt+lN0SF/0jRJbd62wfAv4R0BAi7XR2FSEyHkTXVwIJVtYJkf55Ly4WcfzzULQhu+Sif4TIIZ3FwxCAwFACMxUiN9eWJQiio42bsrY8PCiaENmb0t5ck+VgWdY2Jx+ZNIUj/YtjItO5lPdoHUU87UOJdXJ5TTZ7I+B9v/CvvP6ve8t1+Bf/kBL/PyGybit4fQjoIzBTIXJrqxsaw2A4qoB3j0+LBE5CpD67R7S4liJujnkcCIxdH1MPmbDHR+LfiC5U/VQt/qV8UIkGSUKkaqVoPARqIaAnRBZ1nUgbBk1xNsc8xkcWu8dB2ot/DxT7/uhQ9E037++mcKR/MRKZzqW8R+sp4jHnei6GfuFfeT3u1pbr8S/0LP0nIdItR2gNBDQQUBEi5xckKPI6kXZa0dwlZtTxjrbAR6azx3yKzxIoh4dIDar41ca6inh0itqOhA9zEP/8Ei62N3X5N+p9ihAZ6yT+CwEIjCWgIUTa2x42CrzYePfYyAwBMT6lOGWQJESO9bGyBWor4r0p7RFT2aFn+FeZD1W/UG3+hW6l/CREVm0BrwcB/QTUhMjC7p0dTiHan/Hp7Ng0D0Vcv+FD9qC+Ir49pb1uTtSKHPOYUtQTx+WmLZPjMT7EDJGhhofr8y/2HhfxhxBZgwi8JASUE9AQIttmOtv8M2oqJttzo06sWZe1gYuLd49PC0/C2coSOiNvyGntoYi789dSZxG3U9rLy7HDKfDPHTvKb0md/qW9N5nHCJHl9zuvAAHfCKgJkUVcJ9IeCzlwwkw0KHYDpj2pxhwvGb9jDSHSK/drLeKpLuGfV4KN2Zla/RvyYZcQOabTeBoCEEgQUBEizR1r2hXcsWbYJ/SiHjeFgy83CNRaxHvHRQ6fWizKueh28M8N90wravWPEOmOCLQEAsoJqAmRRYxERgtqHb9TxN35a6mviA8eUlGlh/iHf6N8YyTSHT9oCQS0EFATIou8xM+oN9Iyn6OIu/NnUUeIzHRpqSGjREV4iX+z7d84hwiR7vhBSyCghYCaEFnkJX7GvZmW9bwp4ny7w6CsfnZ1u7jnjnumL1zzhBCppWzTTgi4Q0BDiOyYYyILu8RPiSM9rhUF2lPtMYfwhrdmBwiR7hRmWgIBLQTUhEgfjonUXGBoOwEJB/x2gBCppWzTTgi4Q0BDiLTXifThmEiKsN9FmP6lfzU7QIh0pzDTEghoIaAhRDY78xLMNVvOHUOkuWDQdgIPDuBA1AFCpJayTTsh4A4BNSFyZ6NJiOR4ThzAARwoyQFCpDuFmZZAQAsBDSHSHA4ZNFsdikdJxSM6GsHvjE7hwGw6QIjUUrZpJwTcIaAiRJp7ZzOdPZuFjUBDv+NANQ4QIt0pzLQEAloIaAiR9sQaQmQ1hYSCDWccmE0HCJFayjbthIA7BNSEyFZ7nulsprNxAAdwoCQHCJHuFGZaAgEtBDSEyJaZzvbhjjWM8MzmCA/9Tr9rcIAQqaVs004IuENATYjkxBoKsYZCTBvxVKsDhEh3CjMtgYAWAmpCJHesoThrLc60G3c1OECI1FK2aScE3CGgIUS2zb2zCZEUYg2FmDbiqVYHCJHuFGZaAgEtBFSESHuJnwZ3rNFanGg3wQoH3HeAEKmlbNNOCLhDQEOI5MSaks7GpLC7X9jpI/qoKgcIke4UZloCAS0ECJEENC6ZggM4gANCiNRStmknBNwhoCZEPmrHHIWOQocDOIADJTlAiHSnMNMSCGghoCFE2jvW7Gw0KR4lFY+qpst4HaZmccBdBwiRWso27YSAOwTUhEguNu5u8SEY0Dc4oN8BQqQ7hZmWQEALATUhktse6i9SBA36EAfcdYAQqaVs004IuENAQ4i0Z2czne1u8SEY0Dc4oN8BQqQ7hZmWQEALAUIkxxlyrCkO4AAOcHa2lqpNOyHgEAE1IbLRbFPoKHQ4gAM4UJIDjEQ6VJlpCgSUEFATIuea3LGGKUP9U4b0IX3oqgOESCVVm2ZCwCECakIkI5EUX1eLL+3CTR8cIEQ6VJlpCgSUENAQIu11IgmRFGofCjX7gMeuOkCIVFK1aSYEHCKgIkQuLErAdDbF19XiS7tw0wcHCJEOVWaaAgElBFSEyPkFCeYaHBPpQ6FiHwhcOOCmA4RIJVWbZkLAIQJ6QiQn1nBWaklnpRJq3Aw19Eu1/UKIdKgy0xQIKCGgIUTai437Mp0dnHi78A0DHMAB44BLQZkQqaRq00wIOERATYj05cQawgPhAQdwIHSAEOlQNaQpEIBAbgIqQmRnXgLfQuRdd90lfMMAB2bTAUJk7lrFChCAgIMEVIRIc2JNo+XHHWvC4kF4mM3wQL/T78aB8H2AkUgHqyJNggAEMhNQEyJ9OyaSMEGYwIHZdYAQmblGsSAEIOAwARUh0kxn+3KJn7B4ECBmN0DQ9/R9+D7ASKTD1ZGmQQACYwloCJFNEyJ3zDWdOpNx0jf/sHgQJAgSODC7DoTvA5O+j5SxnikGfEEAAhDIQ0BDiLSX+NnZIEQSOmY3dND3fvU9ITJPmWJZCEDAVQJqQiTHRPpVRAlF9OcsO0CIdLUk0i4IQCAPAUJkxXdBCYvHLBdQ9p0AOesOhO8DZUxLT7pNprPzlE6WhQAEDAEVIZLrRBI6Zj10sP9+/Q0QIinAEICADwRUhEiuE+lXASUQ0Z+z7gAh0ofyyT5AAAJqQmSz1eHsbO5yw11+cMALBwiRFF8IQMAHAnpCZJsQOeujN+w/I5i+OECI9KF8sg8QgICGEGmvE9kkRHoxAuNLCGA/CLTTOECIpPhCAAI+ENAQIlvmxBpCJEV7mqLNuvjjkgOESB/KJ/sAAQgQIrnEDyOcHGeIAxU7QIik+EIAAj4QUBMiudg4I0kujSTRFnycxgFCpA/lk32AAATUhMhH7Zzj7OyKR0umKZKsS8jCgeEOECIpvhCAgA8ECJFMZzOVSTjHgYodIET6UD7ZBwhAQE2IZDp7+KgGIz6wwQFdDhAiKb4QgIAPBNSESM7O1lUkCTX0Fw4Md4AQ6UP5ZB8gAAE1IbLRanNMZMVTboSA4SEANrCZxgFCJMUXAhDwgYCGEMnFxgmPHLOHA145QIj0oXyyDxCAgIYQ2b3YOPfO9qqITjOKw7qMAmp3gBBJ8YUABHwgoCJEzi9IsLPRZDqb0ajKgvSRU3ZLcMKh1Nc7dEIgu085kvqc9nBD+6sJ6IRIH8on+wABCGgIkXY6e8ccIZICX02BN5wJkdWxnkWvCZEUXwhAwAcCakLkXKPFSCQjkZWN/hEiCZFlhltCpA/lk32AAATUhMhGk7OzyyxqbHswNOUKkUdOkd1BIEH4vfsUOdIL/IfkhGC3nHIksv1DJ0gQnCCHwmWGrn9ETtkd2W5s+0yrR5iGLJX8JERSfCEAAR8IECK5Y01lo3uagmqeEHnklBMiIXE7+PWOpxwfIkev3w1Kae0hRBIitwp8/zLFgC8IQAACeQgQIgt8E87yhh6OQGgKVLPYVhvawpG/lJ8jT6wxI4290cjxITLBd2B9QmSCj5LRxlHtDt8HsrxnVLUMITJP6WRZCEDAEFATIjk7W++oy6hi6upzaSN/YVvTRgAToXMgRAZywqFI/8Wns8MTeaJhtbf+6BDZm0LfXnfgdTwIWyFz334SIinAEICADwTUhEjunR0JIYSD0qfgs4dIM9IYREYe75K7BkYSu9Pb0ZHLbuAMj4kct/7oEBnd7l322MrY8Ze4UrorkwRcQqQP5ZN9gAAE1IRIbntIiJykWE+6TuYQaYNbGAgjgS86khg7cWb37t39E2uyrB+OVPaOs+y+TnJEtBtIGY10/2+FEEnxhQAEfCCgJ0RydraTIyqThjTX18sXIiOjf2FgjIbI+GhgdDrbLj9+/bT2JEJkfFvx1+X/zvwNESJ9KJ/sAwQgoCdEtrjEj+vBy6f2pYW2cP/i4c0uGx7PaMLjwHR2yqhYNESGo4xj1k9rj2kHx0Sm8FUQlgmRFF8IQMAHAmpCZKs9z8XGFRTHMGjxU2e4od+q6TdCpA/lk32AAAT0hMgOIZICX02BhzOcy3aAEEnxhQAEfCCgJkQ22x1GIhmJdOaYtrJDBtv3O8gSIn0on+wDBCBAiORi4wQzwjkOVOwAIZLiCwEI+EBARYhsdyTgmEi/R2YYeaN/Z8kBQqQP5ZN9gAAEVITIzrwELY6JZLSo4tGiWQo17Gu1IZ4QSfGFAAR8IKAhRJr8yEgkAYoQjQPeOECI9KF8sg8QgICaEMmJNdWOlDAyBW8cKM8BQiTFFwIQ8IGAhhDZNCORhMjyChphAbY4UK0DhEgfyif7AAEIqAmRnFhTbZEjVMAbB8pzgBBJ8YUABHwgoCFE2mMiGYksr6ARFmCLA9U6QIj0oXyyDxCAACGS60R6c7ICQajaIATvyXkTIim+EICADwRUhMj5BS7xQ8GevGDDDnauOUCI9KF8sg8QgICKEMl1IgkBroUA2oOT0zhAiKT4QgACPhDQECLt2dmcWEPRnqZosy7+uOQAIdKH8sk+QAACakJks9WRrYqPXyzj9cLi4VJBoy0ELByo1oHwfaCM95hJt2mKAV8QgAAE8hBQEyLnmi1CJHcs4SQgHPDCAUJknjLFshCAgKsE1ITIHY0mIZIA4UWAYNSv2lE/F3kTIl0tibQLAhDIQ0BNiJxrtQmRhEhCJA544QAhMk+ZYlkIQMBVAhpCZMtc4ocQyeiNiyNKtAkvJ3GAEOlqSaRdEIBAHgIaQqQ9O7vBSKQXIzCTFFzWIaj55gAhMk+ZYlkIQMBVAoTIis/4DouHb0WR/SHo4UB2B8L3gUnPpC5jPVMM+IIABCCQh4CeENnmEj8U6exFGlawctkBQmSeMsWyEICAqwQIkTWNRIZFhJ+3CwxgMKsOlDGiOOk2GYl0tUzTLgi4S0BPiPTsmMhZLZrsN4ERB/oOTBr4yliPEOluoaZlEHCVgJoQ6cvZ2WW8+bPNLS8u/0Q/0o91OmCKAd8wwAEcyOtAne9bWV670e5I0Gj6cZ3ILDvMMoQJHMABHMABHMABHJjegZYJkU1PTqxBiOmFgCEMcQAHcAAHcAAHsjhgQ2SrM8+UZcUnAWXpHJbhjxgHcAAHcAAHcMBVBwiRhEc+QOAADuAADuAADuBAbgeYzkaa3NK4+omIdvFpHQdwAAdwAAeqc8DMZAetNtPZSFeddLCGNQ7gAA7gAA7od8CGSE6s0d+R/DHShziAAziAAziAA1U6YENkw5OLjVcJjtfiDxUHcAAHcAAHcGCWHWib6WxGIvkjmOU/AvYd/3EAB3AAB3AgvwMmPwbNVoeTKzjBBgdwAAdwAAdwAAdwILMDhEhkySwLn9Lyf0qDGcxwAAdwAAd8dcCGSI6JRHBfBWe/cBsHcAAHcAAHynGgGyK5dzajcYzI4gAO4AAO4AAO4EAOBwiROWDxSaacTzJwhSsO4AAO4AAO6HPAhsi5ZovkTZjEARzAARzAARzAARzI7IC97WGD6ezMwPikpO+TEn1Gn+EADuAADuBA8Q7Yi40zElk8WGSFKQ7gAA7gAA7ggM8OdEciuWMNI5EM3+MADuAADuAADuBADgfsMZHmH5+TMvvGJ0EcwAEcwAEcwAEcKNYBGyLNnDZgiwULT3jiAA7gAA7gAA747ICdziZEIrnPkrNv+I0DOIADOIADxTtgT6xptRmJRK7i5YIpTHEAB3AAB3DAXwc4JjLHAaT8Ifj7h0Df0rc4gAM4gAM4kM+BbohscWIN4uQTB17wwgEcwAEcwIHZdsCGyAaX+OHEIkZkcQAHcAAHcAAHcCCHA4xE5oDFJ67Z/sRF/9P/OIADOIADONB3gJFIQiSfunAAB3AAB3AAB3AgtwOESKTJLQ2fwvqfwmABCxzAARzAgVl1wF7ixyTJWQXAfvPHjwM4gAM4gAM4gAP5HbAXGydE5geHbDDDARzAARzAARyYZQearbYETS7xw0gs0/o4gAM4gAM4gAM4kMMBe0wkI5F8kprlT1LsO/7jAA7gAA7gQH4HzCUiA257mB8cssEMB3AAB3AAB3Bglh3gmMgcw7azLAr7zhslDuAADuAADuBA1AE7Esl0NlJEpeB3fMABHMABHMABHBjnQGdhUQJCJKKME4XncQQHcAAHcAAHcCDqACORTGdzJhoO4AAO4AAO4AAO5HZgx1yDkchoquZ3PmXhAA7gAA7gAA7gwHgHuGMNnzxyf/LgD2v8HxaMYIQDOIADOOC7A92LjXPbQ4IUYRoHcAAHcAAHcAAHcjhgjon8/yEDpDESDn/WAAAAAElFTkSuQmCC;" vertex="1" parent="1">
          <mxGeometry x="465.58" y="55" width="387.5" height="220" as="geometry" />
        </mxCell>
        <mxCell id="I8OUwgIoea2aEwMqdT0k-3" value="" style="endArrow=classic;html=1;exitX=1;exitY=0.5;exitDx=0;exitDy=0;" edge="1" parent="1" source="I8OUwgIoea2aEwMqdT0k-1" target="I8OUwgIoea2aEwMqdT0k-4">
          <mxGeometry width="50" height="50" relative="1" as="geometry">
            <mxPoint x="460" y="30" as="sourcePoint" />
            <mxPoint x="600" y="30" as="targetPoint" />
          </mxGeometry>
        </mxCell>
        <mxCell id="I8OUwgIoea2aEwMqdT0k-4" value="Справка" style="rounded=0;whiteSpace=wrap;html=1;" vertex="1" parent="1">
          <mxGeometry x="964.99" y="20" width="110" height="30" as="geometry" />
        </mxCell>
        <mxCell id="I8OUwgIoea2aEwMqdT0k-5" value="" style="shape=image;verticalLabelPosition=bottom;labelBackgroundColor=#ffffff;verticalAlign=top;aspect=fixed;imageAspect=0;image=data:image/png,iVBORw0KGgoAAAANSUhEUgAAAckAAAC5CAYAAABDasQEAAAgAElEQVR4Ae2dS48cx5HHG9hvsbc97dkgYMBt33hZ7O7F0D5gQoYgLdkyScyM97Y3XX0R0BddDWLtvRg0LZnEyLAsaKihR5T4EG29NbZl+v0ECPgD5CIyKzIjIrOqsqu7p19/As2qrspHxC8i819Z3VM9+tvf/uaePHni/vrXv7o///nP7k9/+pP7wx/+4H73u9+53/72t+43v/mN+/Wvf+1+9atfucePH7tf/vKX/vXZZ585vMBgl3Pg6tWr7qc//elav1566SV38+ZN98Mf/tAdHx+7t99+2z18+NC999577qOPPnKffPKJOz09dT/72c/86+c//7n7xS9+gbG94/Pbp59+6i589auteUA5Q2VmGf+Ub5Rfs9Q5OTmZqfysfVDeky+kbaRxpHeke7///e/dH//4R/eXv/zFjUggaYcO0EkSRKpAjtBgIae4IYJCg4peH3/8MV5gsNM58Pzzz7t79+6t9Ws6nbobN264W7duuddff90L5d27d939+/fdo0ePvMC///77jl4ffPCB+/DDD714Ynzv9vxGF1H//h//2Tq+KV+ozCx5QvlG+TVLnTfeeGOm8l19kIDyi22gnCdfSNv4YpF0jxaDpIUkliNaQZJAfv3rX8cLDJADM+TA+fPnHa0m1/n11FNPuWeeecY999xz7tKlS46E/cqVK97mvb09t7+/718HBweOX5gLMBdSXnzxS19qnQ84b2bJFco3yrFZ6kwmk5nKz9pHnx+0uhzR7VVaQZLh+AcCIAACIAACIOAcCS6tfEe0iiS1hEgiLUAABEAABEAgEKBVL320OKJ7rnT/FSKJ1AABEAABEACBQIA0kT7DHNGtVvqgEiKJ1AABEAABEACBQIA0kb7UM6KvvNI3WCGSSA0QAAEQAAEQCARIE+lPvEb0NVf6Ew+IJFIDBEAABEAABAIB0kT6k5IR/U0k/Y0IRBKpAQIgAAIgAAKBAGniu+++60b0pR36Bg9EEqkBAiAAAiAAAoEAaeKDBw/ciJ6sQ08fgEgiNUAABEAABEAgECBNpCdTjeibrfQ1V4gkUgMEQAAEQGCdCYxGIy9cfTZ6cRuN+op1nidNpMdOjuibrfRUgbMWycPJyI1GE3fYaeYiTp666XjkJsvvaBHGog0QAAEQAIEWAix+tG37V1Omra48TppIPwjgRZIe8nrWIimNmXv/cOJG46k7NQ0FISYxhkgaNHgLAiAAAhtJoEsEu87N6ixpIv0YwPaKJAmnX6keuglEctb8QHkQAAEQWFsCJTEsHZvHARLJt956q1skaSU2np660+nYr8ZoRaZXbHwrMwiRvH2q6lA9c7+T25ZO6DpjNzVLQ30+rA7latHbZ/pxDiIpGWMfBEAABLaBgBRFub8o3y5evOiuX7/eL5IkPCSU4V8QxSR44f14PFGCFsRMft5o6zlnRdLXkbdM40qw6dkLtWjzdOqm/Dljy+3WUBMi2QQPGxAAARDYKgIsjqRTtL/If9UrySSITfenUzce8SqvEckoolSGRInPC5N9vSRyWiRLdULbYWHYI3QQSQEauyAAAiCwGwTWQiTTKpKhS0GTQtacNytArmXFU4mkrxO+YONvmdLt2eblRbK1TdGnXIWmThvRxhd3FBK8AQEQAIENJ8ACSVu5vyi3qleSZyeSaZWZOQmRzJDgAAiAAAjsKoGSKJaOzcOnWiSz261KsAorSXU7VpjYdbu1rQ5X7ztPNmElybSwBQEQAIGtJdAlhl3nZgVSL5LqzyfCZ4NpdVkQSbrBmT0oIJRL9fIv7hTrTNLfPmbn7Rd3Wh9M0PN55qzkUB4EQAAEQGAlBGpEsKZMjfHVIjmeHvon1vBnhHplWRZJMsD+uYYUSDqvPpNsLA5CmD6PLNWJdqgvBwU7/Dn8CUhN/FEGBEAABDaOAM3xJIJ9/1go+8p1nZ9BJPnPP7qam/1cSSRnbwU1QAAEQAAEQGDxBFYrkn2fMS7eX7QIAiAAAiAAAtUEViOS/ks/eJZqdZRQEARAAARAYCUEqkRyJZahUxAAARAAARBYMQGI5IoDgO5BAARAAATWl8De3p47Ojrqfnbr+poPy0AABEAABEBgeQQODg7cyckJRHJ5iNEyCIAACIDAphLA7dZNjRzsBgEQAAEQWDoBiOTSEaMDEAABEACBTSUAkdzUyMFuEAABEACBpROASC4dMToAARAAARDYVAIQyU2NHOwGARAAARBYOgGI5NIRowMQAAEQAIFNJQCR3NTIwW4QAAEQAIGlE4BILh0xOgABEAABENhUAhDJTY0c7AYBEAABEFg6AYjk0hGjAxAAARAAgU0lQI+lu3PnDh5Lt6kBhN0gAAIgAALLI7C/v++Oj48hkstDjJZBAARAAAQ2lQBut25q5GA3CIAACIDA0glAJJeOGB2AAAiAAAhsKgGI5KZGDnaDAAiAAAgsnQBEcumI0QEIgAAIgMCmEoBIbmrkYDcIgAAIgMDSCUAkl44YHYAACIAACGwqAYjkpkYOdoMACIAACCydAERy6YjRAQiAAAiAwKYSgEhuauRgNwiAAAiAwNIJQCSXjhgdgAAIgAAIbCoBiOSmRg52gwAIgAAILJ3A3t6eOzo6wrNbl04aHYAACIAACGwcAfoVkJOTE4jkxkUOBoMACIAACCydAG63Lh0xOgABEAABENhUAhDJTY0c7AYBEAABEFg6gaWI5Ol07EajkXhN3OHSXTmbDg4n0q9mfzx1p2fT/dJ7If/G04I3p1M3pphOUiTzOOu6RVacF6KdbqdO3XQ8cnnxcDzmWV6g3OzhROSl9qdUoeRj7NPwKNXHMRDYGAJ9Y8Oe35H8X7BI8sRlRPFwUpjkNiZ1lKF+4q+dkFXNzXhTFkmOqxYVLyCSRSOk8hB7PYSbFFndZmNPPGjfc692e+qmE3lBc+gmIy3sWQ264Iv96LNDfNIt4B0IrAuBirFBItkyFtbFi2XYsVCR9JPmFq2qSsC3fWIk/7KVpL+CnLipEYxMJJ1zbXzajpcY+2NNn4cuCJkam16MzYVY6Vhr4+lEX86WfOTaM/vEFbEFgQ0gYMdG11jYAHcGm7hAkSxMZsossRrhW260HU/dlG5hqlnQORsgZ5b6diL35WO7YyfvGJYm/hTwdrsKNx1bRYBc5X6ULeKioTSpSj/9+eiDuK0r2NSWsXw4FMlvPqK37EM6muJq69r3VCevH1rydgs/Uvt9e6n/WDIKaDxCPbvJSMddnm3dp7ZEjGy5ko9cxvpE77WLLStck8uy/5o2fL89eUI2ettjOc2G2rA5on0Ntid/eJykixPdfj6GmZPaGt+VDXxLn202cem3OeRfstlT8Lfr7fxi5xMZA9djR/In5Ka8/a76rmlnMI9Cvvu2Unzq/UgeqT1qT8RA54cqudVvFieSNkAd2DLYJhjO2QHqZ98opHaw+PZEMMMASMliy5NpmQ0tx6wb1FY24JpC/py6fWcmyR4/a+wcWob9KPnN52hr2/c+NWxtXfvecrfttnGT5fL9gkgWV42Fcnlj2RHvn5rZdJHMR3Ha1qX3silflyZ8eZDqUx40x3wZkbs1bVAZJS6F3LXt2tj0t6HHIJXPJsxRGmM8ZtkvgUnvCt+tDafTibi4NWOnkJvUsI0PtSlxD4lBnx3RocOJjgP5JphUtTOYR79IVvUfncl3fMwFzMiSL2LEubz29hxZD5G0q4DCJEgB4olBD65CshiR1eVD8OzgoqOlYzbUNnHk+eI57wtfxRtbjZ81dg4tw3b2+ajaV7bnfHxbPGCabdu4KbJhozq3JfErT6B0Rd/Wf6mLYL+c6PNSXbysT/Q+9s/spkkQuXXZpt9vE8mWNlSMmkZlm+VVdS56PJ5KdrHokT/eT2FjuX0/gNxYiAS3K7dkJ/db8kOW9cIu+i2V136blWQLP+pD1vP7oh9lA70hIes6zxX6yhXOD+dh5hK2s4t/oX823W49k662mo9Bei+KbMMb+H5NRDIkNw8emcDMlAYIT0BqsFDgzUTN72V5Pqa2XKDppNQv989b6rstMZRdXMFcAMgytj95jqsPLaP8FOJh2+N+eJtsCJMqx4TO27r2PU+sJT7Ubn48CGCytSRYJZEka3TdyaGcNPQ5eXUv/Swd5/O8zX3kM414iBwiH8NbwY7yU5Sh2olxw1RMwDVtyPpsjbJzIWOi8WFM31Q3cfHtm2PeEBkDtkxvk3+aA5fyfsjxbNikXGn/OGLeGJAtXXawrWErcs3Euaad4TxCv6rLQlzq/UhekU1ZzNPptFfoL53cnr3FiSRftZU+yDO81IDmcwTcDwh9xRtO68GnJomKQKnyTX8lG0rH2Dze+gRSmclnyoM+u+ru8LPGzkFlBKM+H2P7og57aOva975cSx50ceP2y9vCZFAq6PstTdy2cMgvK1y2FL8v+tictD7Re0oNX4cnd+Ko8kXntyrbCGhfGzFGbCRP6txPIXaiqN/tbaO5GzP2Isl3QqLjLZOoHqe2TzsWtA0hzmrFRn4wR3NxwW3b+Mwfg347uO9sq7jXtKN5zcajuYgRX77wLOIFTU3/1oPZxkb4zLNmzNl+Nuv94kSyGVR6QijDsIkdSjUJczjNb9l0DZaWSVn2rJMvnCnZUDom26F9aqvNx+I5NXB8C+ELJgU/a+wcViYNxj4fQ/tT/6cRPOcyA1vXvvflWsSqyIYb7tyGwW5tsVWKtthCPfErFM9Wz7KM9YneTyZ0Z0OICsVfGU/+pInF222EoK+NECN9Nar8X8iYSGLu25Y+tbXfEvvIrHccJy5Up8RG3tmIZQTfuWNQ8MHaEf3JdhKzkoBk7czJw34xJ1zQNAwH+GHzOXPPHsjmNltgO95fvHjRXb9+fVHPbg0Tmrz685jM30n6ZBGJzSj94KcrV3VOJF5T0E4SPrhi4vG3/cTfw9ny1EzJhtIxto23vi9lH59pBFTc2uRbgnZge3syP8srUWtTjS9ZGZHMtr1kfdjz/tHtLjFxcxlb176f/XYrt9y1rRBJ758Qprbm2ib3tvItecLFPSuRC8xOxZtsE2UsM/9esK5pg8qoPgp2hnak6Oi/g+tvQ487b6cYY8X2x7ldzIpzQ6BQt53DhC9i6GOl87Df5jQGFZ9ZYmBzJLOD8rGx08xr4ctRzbnedjRf4qT8662fyMY9Mc5reMZ6tGP7Uyd9Af03xg0XxTmrsx0HFriSZCAh+OqzAzEJeNzm7+24Zh6oQlvi8woZoDBo0+cU9px832aDncCiXWLH9yNHujk3nh6Gr5yznaWyLQmpBknTrrWptoziL4TbtifM97uBo5isRAFb179nP3lb8nfACi51WxJJmxdSDFLNbK8Z2JYNvW8xu3gxxe3aXPDvTa77idM3zjZrWz1DUae7jdAzlanJZ98Wx0V969pMyI1DOr7BXsmF2+NjNv7WJubEAlniTse4nmqPmNCkb9hwWW5b29yIpKjjy0WRrItBpx0+h5oYelFKc466g8AXLsxf+cN2yLppn33stIMByK0Uyc7+ZaVmv3ds5DZzHhRa26pDSxDJOfiYQREGV/uEzck0R48LrVqavIodZH4WS+EgCGwJAZpgN2ccd0KnsTu3OmwRj05Y23FyjUQyXKlo4dusZKoTyZKf25FM8AIEygQ2axyXfQhHaXU3t0b6729syUVDF6wtObcWIsm3cea/QlttVPpEclv8XC1l9A4CIAACZ0dgLUTy7NxFTyAAAiAAAiBQTwAiWc8KJUEABEAABHaMAERyxwIOd0EABEAABOoJQCTrWaEkCIAACIDAjhGASO5YwOEuCIAACIBAPQGIZD0rlAQBEAABENgxAgsTyfjnDfyECbmd/w+LdiwscBcEQAAEugnYpw3J0n1/jibL8r6uU3rSFZfcre3e3p47Ojpa1LNbAzwvmBDG3cokeAsCIHCmBBYtkvysaX58oH6wy5m6tladHRwcuJOTE4jkWkUFxoAACIBAD4HFi2RPhzt6emG3WyW/tpUkL+d9cPl2rH0YsX0wLz9xv+Uh2b6tpg3fL7dLW7GaVX2ac9F2/4Dg9KDhvocrx3r2Cf7NCZvEZJ8wiTwND0OPB8P7+JbPi19fSH2G2yF81UfbVM9DdGPJosA5/GpB8lddOdoHHpv6HMtkT/mXVdL5ft9qYtRXhu1S5Yzt3iYTa+l7f5xqHhDeFYMm7jI+tM92VrAv/yhukxMiEWp8STFKe4qfyC1qT+ZclnfZ+NXjkHrosyn0LR8Eb8dJspPbm80m/Ug4sofir3zmWPiuQv8yR3xZwdmPJVGnz0e2W7ZJx7J2ff/l/7rKsk+xZkVOSXf03NSdrzW+RjvEjuIt5nkqQm2qmArjdL08v0QXC9k9c5Ekx1Ni5MnvAYhkCxO5eOq+PNeICPPLEqNBFKBWDDrx8GJrR1vbHIXSed8GG1eYHIJdMsiBB1fxiaL85d58Y4JjeC8nztPpxKXfY805+5aEv9b+vvq2PLVn/RXW0ll/QdDmW2DRHaOaMp5ZT471+U5tsJ3RL3NhVeN/H8PYtuzMc+yOXe5jIJ3nUy5IpTKhdvo/43w6ddPDcD7zm3JI5GhWly/0hI/9fEOu8Dzh2xR9JEtnsEnW9xdIKddynna8aHuoV2+T8KlPJAMXOdYrL7Sss+J9ZoM4Z+PUl4v9MQmNl/qsrSvMC/x6YsLxz+qpRYONlSy9mP2zF0mZWOSDv8LhKzu6EuZ9djBACNXMeV9XJ3sO1tSJzU6zH3eWCeD3RRBt0nEzvC2dl+1ROZVM7PdU/qpA8pXKysmH+2ndmskqK1c4T/Yxr5L9qg1Tv1Te+qvqC5HMfauJUU2Z5gq0M8eCVV2+k32xiWKcBk5whiFZ0s2sIWjqefvox51FfvIv5kwm+vdYa3zRcSLOwn99Uv/mIdsf7aiPUR/fMC/Q2G5pU9hFPnIe02HPtNOmNM6oPNWXd5180xx3/9vWoXzWR3SiuUiNfdaM9YE5JPz2ftq7EeK9tFdUC7ulnGouhOKcrOamUK2Ur8NyrGueL7MJn5naeqwhSQcyX+c8cOYimQdODAIKnAiy3Od8lAPCBkyei1x8myWAot+msKyvB1ozkIxtbBNVp7rS3rgvClGZ8FYMOrIvlmmO0w8yq6ul6I3ZIR+afmMbqUg2iMQgZpu5mvSdW+iqX+MvtxO2Hb7VxKimTBOHzhxrjEqxyAdkOtcWp7p4U1ddDON5DkJjWzzOsaWtiF2wj2wTEwZN6uOpOzS/1Vrji+iWHOvMPWov5jbZJW1vravHWq1NsS/ZhzI2vInlmJcs720yNjfluBjV784ZkQdN/z6u3AAdo36yGNEJUZfKiDqZ3SX7m/5Km8wGUajkU1cuUvlgWru93huTX3Sstm40b2hMfL26uTz2tYCdNRTJEgThaUzGEEyRc9lVrq9VDVa35xPKJL0aSOpKMySKOs8TpDCQk0m1TfbFMk2CepEUE6Bwv3VX+dmIp7DfDmJ7VaYHVX99XT5Y1TVo42RR8k3ZLj0Uk2tNmWqRFO0W6vTHqSbe/QzJ05xZfz1lX5M7pWPUvjrO+aByTvL2FXpFUuW5jIvcV83mvMns9nEQKvvz6ta5ajS+IR9ntylWL88bagUrhKOplsWNfGe+ldwzu4v5kOy0e5kNooBue8acYj8KeVLqc9E5Rm5o+xvHKvNLYFjI7pmLZBKEguNGeMoeNgPucJrdLi2CbWvTH5eCTO2m9z4ZOFmKQQuJx/pW6tsmlE8muk0mbymrRExC7evKcmUY4miqm25VpdPWHyuayv6MjZnQijxKE37qn0UyTo7St5oY1ZRp7OrMMTKpMKHJSbY/TuVBrOJdwZBMUXXCgSyvbey8fXRrLPaRcte2V+OLjFK81eZvM6oz/o3Kk3AkfUQyQ4wmneNA+NbWpjBtkE2mfnfODBTJHh9zuwv5IOy0uzbW8rxqO+ZJKlHMqR57qXapT+qrN56p6yZvuxcByn6u25YLBf+4yiK2Zy+S6vOOIDR2gtK3Gk/ddDJ1csx6gLQiYYVqSBTB8sQpBJAnbNmvDX4piWR5O5mU+rZtUhm6VaXaaRFJcsnXV3aLkB9O0udmdNhfZTWJZ5PJv5e37ISgltj11q8QCWFq2NV9Wt8Cm3SRUopRfRm+deTB+FvSibm2w5cwK5H+OFX4X8GQ+rY5YvMqvJexC31z6pOtfoJqDtj2anwJ8Un/Z5z7vrgjcjSrK283Nl3026RFyfskLliTpWGP2kvx5bGQcqlok5hT2B5myn8vmNrU9lCvlnPpwqt7rA/IIeN4ZoM4r5hU5CIzSD43HBMU33qpz9q6wjy/Uuya55X9omLoK8W2NE+I4gvZPXORHE8Pw589dNx/Z+j82YcKHLltg96gaAMbqtDnfOmzidRmGAA6YM0gEAPT2kRtyfwp9W0Tyrch2vRmd4gkned+ZV+xnvBHrU55EPN56jOuntjfxKLExdterO97L94Osf6Gkvx/6Ff6YX1TfdqLiaaZvjIhDm05Vud7f5wqJrjOGDCTwmRbUY/sixzlxRHXjSeb/OnMuWSL3OPYhNxIV/36OOVQOsf1a2Ikb036emIc5Pzzi2nui7Y1NtkyafxzLNtyhnrozps4fgTn3IdcdKiMtMP3JD/za5nn2Peu8WbbVjFR80ForcbezL7GkNq6bDdvfT2eY8x4t/ZzHdoqX0w9WW5R+0sRyTbjuhxvq1M8Hif84lkc7CRAAz6f2KgKJZ8dtJ1NreHJ7hzbbt/XMBwbYVJ3zmyECzByiQQ2UCTDVd2mT+ZLjGlP09stFN0T3nb73hN4nG4h0J0zLZVweGcI0GPp7ty5s9jH0rXRmzcZqb6/tSFuJ7X1heO7SWDeHNtNarvtNXJmt+Pf5/3+/r47Pj4+G5HsMwbnQQAEQAAEQGCdCJzp7dZ1chy2gAAIgAAIgEAfAYhkHyGcBwEQAAEQ2FkCEMmdDT0cBwEQAAEQ6CMAkewjhPMgAAIgAAI7SwAiubOhh+MgAAIgAAJ9BCCSfYRwHgRAAARAYGcJQCR3NvRwHARAAARAoI8ARLKPEM6DAAiAAAjsLIGFimR8Io54aG3pCTn6AbX6OaL89AtVRjw4mCJFZfRDd8Kj6uSvggRb5NPiOcbhYcmyLJ1R/cWHNjftWn8ae2ps5V55W2M7l+Vt8KXwQHINgcCoh7jbh0hrH80P5rb8WoN8/B/7y3bFX6hgPiZOvpyxqbO92DB2QAAEQGA9CCxcJOUkSC76iVlM5v69nEz9JJrEjAUhtVMWQNFkEjhxMG8nAI9CIcr22VTyg47lfeS2hl7T/1RHdF20PZUOe1Qn8QjHLFd/lFg2jVufgt+Jc/xlg2hMsF32Y/u170+nEzeNv2HW4ruwyda3763feA8CIAACqyZwxiJJqzi9cuTJmudqmjh5oo9wzE/GUBkuH382a5oEgur5MvQjolKQ/Wpp7CYT+VuU/TZReyVRqrE1+tDs1NheqiPFq80eaaMWyZKP3inxA7+zi6S10/6mHtvJtpPvvE/n7PusPRwAARAAgRUT2Nvbc0dHR4t5dmtp0pMTd3Y7kG/Tid9mLLURfgQ1iSuVCSIpJnaxYiGmoQydT/W8oI6n7lD+ZptfyRZuZQqbqD3lRxO0GlttfGtsL9WR4lJjjxJJ76NcRXIPUjwFy+a09c++j3aIOOqLEo5DaNDWp/fxt/iaNuLFD5uILQiAAAiskAD9CsjJyclZimRpsk4E7EQazsjJPE28mRCIGZbaobdS3ErHgnB320Q2yHbY2hpbuSxvlQ28yjUCz2V5W+ontyeIHCPI2Ihfj+d29cXHrCJJMRnplTr5wT75TvK4SbHP/DJ3DJKd2AMBEACB1RCIt1uvXLniJpOJO3/+/GBLsknPikvFJEhtZLdbzUqIypCt6lfRjdD4MofyliJN2EEMlcBU2ERAVJ2GUI2tFmaN7aU6UlzK9iT/4nkWrDYf/XG+QJhRJFXdYLESZjpkRJN8l37Y90G0+S5BaBP/gwAIgMAqCUSRfPTokbt79667evXqYHvySS8XFyozUquaUzedTB1//yOclxNlWLHYyZVu08ljfkLmZVS83RpcoTa9qDbnreD12USt2Dp0rMZWC5PrdNleqqPKF+yx9lnBKvo4lgyHiKS5la1Wlnply7ykH2STfB8/X6ZkaBN2CwfvQQAEQGCJBM5cJMkXFgr+PEpOlGHiPHTTsfi8SohfrM+rJIbTtpIMFdSq0wpKbFN8tiZtovNtdcbTblvZPN5633ts57K8zcRE2RPESF94NPaafrwPrT5yO4K7KMux8lt5scFlqK+4cuxui9naPKC2Y6ghkhx+bEEABFZIYKEiuQg/SoKwiHaX0cYm2bow/83FSLldEkmxyhSFSKhZJMVh7IIACIDAWhKASM4RFohkGzyIZBsZHAcBENgsAhDJOeK1kyI5By9UBQEQAIFNI7B2IrlpAGEvCIAACIDA9hKASG5vbOEZCIAACIDAnAQgknMCRHUQAAEQAIHtJQCR3N7YwjMQAAEQAIE5CUAk5wSI6iAAAiAAAttL4OLFi+769etutIgn7mwvJngGAiAAAiCwiwSwktzFqMNnEAABEACBKgIQySpMKAQCIAACILCLBCCSuxh1+AwCIAACIFBFACJZhQmFQAAEQAAEdpEARHIXow6fQQAEQAAEqghAJKswoRAIgAAIgMAuEoBI7mLU4TMIgAAIgEAVAYhkFSYUAgEQAAEQ2EUCEMldjDp8BgEQAAEQqCIAkazChEIgAAIgAAK7SAAiuYtRh88gAAIgAAJVBPb29tzR0RGe3VpFC4VAAARAAAR2isDBwYE7OTmBSO5U1OEsCIAACIBAFQHcbq3ChEIgAAIgAAK7SKAokp999pnDCwyQA8gB5AByYNdzoCiST548cXiBAXIAOYAcQA7seg5AJHFBgAsi5AByADmAHGjJAYhkC5hdv3qC/1hBIAeQA8iBJw4iCY08KDAAAAeCSURBVJHEFSRyADmAHEAOtOQARLIFDK6gcBWNHEAOIAeQAxBJiCSuIJEDyAHkAHKgJQcgki1gcAWJK0jkAHIAOYAcgEhCJHEFiRxADiAHkAMtOUCPpbtz545+LB2unnD1hBxADiAHkAPIgSduf3/fHR8fQySRDJgQkAPIAeQAcsDmAG63tiyxLSi8x+BBDiAHkAO7lwMQSYgkPotADiAH1iwHRv/zkcNrsQyGXuBAJNdscAwNJOrt3hUuYr69MYdALlYgiefQ8QKRhEgOTp6hSYd62zu5I7aLiS2L5OPHjx1e8zFglkNzM4rkiy++6L7xjW+4L3/5y5g0IZzIAeQAcmCFOcATOwRyPoEkfsxybpH81re+5b75zW+6r3zlKxgcKxwcQwOJeou5ggdHcFyHHOCJHSK5RiL5ne98x3372992Tz/9NEQSIokcQA4gB1aYAxDJ+cWRLzCY5dCLn3i79eWXX3YklM888wwGxwoHx9BAoh5WQMiB7ckBnth5osd2uGgyy6HjI4rkq6++6l555RX37LPPQiQhksgB5AByYIU5wBM7xHG4ODI7Zjm3SL7++uuOhPLixYsYHCscHEMDiXrbs4pALBFLnth5ol/l9tqFkRuNxOvcC+62+dbt7RfOudGFa/qbuNcu+HrnXritj5u6y/aNWQ4dV3El+eabb7rXXnvNXbp0CSIJkUQOIAeQAyvMAZ7Yly0g3e1fcxdIHI0oBtG84K4JsctE8vYL7txo5C5cm38l2G1jf/vMcqhI7u3tuaOjIzd66623/M7zzz+PwbHCwTE0kKiH1QdyYHtygCf2eQVinvpeDI1Acnv+nFg5apEM4rrqFSTbyiyHjg/6FZCTkxM3eueddxytJi9fvgyRhEgiB5ADyIEV5gBP7DzRn/02CF3rStCvFM+5F26HlVwSydvuhXMjty4CSdyY5VCRjLdb7927538zCyK5PVejQ5MC9ZADyIHV5gBP7Gcvjs3tS/95or6lqm3RIsoiaVeYuk7/rdFllGeWQ3M6iuT9+/fdj3/8Y3flyhVcQa7wCnJoIFFvtZMa+IP/InOAJ/ZliEZVm0NE0n+5J60uq/oRn2suqzyzHBqfKJIPHjzw910hkhjsQ5MJ9ZA7yIHF5ABP7MsSjt52h4jkhWvOryhHXSvQs19NMsuhuRlF8uHDh46+vAORXEySDw0I6oE/cgA5wBN7r5gtayVmPnPM7DDn+XYrlSt9+zWrvyy7C+0yy6HjKorku+++60Xy6tWruN2K263IAeQAcmCFOcAT+yrFpevzRXtOiuTjx+HLO/ZPR1blC7OcWyQfPXrk7t696yCSuIodmkyoh9xBDiwmB3hiX5WwhH6bv5MUf+pBx0srRS2SdEu1XHcV/jDLobkZV5IQycUk99BAoB74IweQA5wDPLGvQlR0n82qUD5xx4gmlc9F8rF73DxQYNUrSmbJbGfdQiRXeEtl1mChPCZR5MBu5ABP7Fqwzv5LL9vQP7McOnYgkhBJfPaEHEAOrFkO8MS+DSK1ah+YJURyzZJ8aEBQbzdWCogz4tyVAzyxr1pgtqF/ZtnFu+scVpIQV6wikAPIgTXLAZ7Yt0GkVu0Ds+wSwq5z9MtY169fdyN8cQdXtl2JgnPID+TA2eUAT+yrFpht6J9ZDs1frCTX7ApyaCBR7+wmMLAG62XnAE/s2yBSq/aBWQ6NGUQSIolbbcgB5MCa5QBP7Nh+FH/FY14WEMk1S/KhAUE9rFKQA8iBeQUB9XNxHTqusJKEuGIVgRxADiAHkAMtORBFEs9uxdXr0Cst1EPuIAeQA9uaAySSJycnbgSRRJJva5LDL+Q2cgA5MDQHIJItS+yhQFEPgxE5gBxADmxPDkSRxN9Jbk9QMUARS+QAcgA5sJgciJ9JQiQXAxSJCY7IAeQAcmB7ckCJ5Ntvv43fk8TtV3zLDTmAHEAOIAeaHCCRpN9a9o+lg0huz9UPrmQRS+QAcgA5MH8O7O3tuTfffNONfvKTn7h33nkHK0lcQeIKEjmAHEAOIAeaHDg4OHC0gBy999577v79+xBJDA4MDuQAcgA5gBxocoBut5I2jt5//3338OFDiCQGBwYHcgA5gBxADgiRJG0cffDBB44eKHD16lXAwQBBDiAHkAPIAeTAkyeOVpL0ceTo448/dnTLlUSSX198auL+8Z/+y00mE7zAYOU58PSzl9zfn3/OTS6nHOVcnXd75coVd+7cOUcf0tOgwAsM1j0HPve5z7mvfe1rcb6edwyU6l++fNmNx19sHQ/7+/uOXrOwojFGn/PNUoc0aJbys/bR5wctIkeffvqp+/DDD71iPnjwwH9Q+W8vvub+4b9fcYeHh+7WrVvu5s2b7vvf/757+eWX3fe+9z1348YN993vftf/ajP9cjNeYLDMHHjpf6+7v/vq/7kbN191P/jBDxb6ohz/whe+4H70ox+54+NjvMBg7XPg85//vJ+PFz0WZHs3b91y//wv/9rK4o033nD0mmXM0Bijb4vOUod0Zpbys/Rx584dd/v2bf+iP/WgL+ncu3fPkQ7S8wPoo8hPPvnE/T+WsDZZSwTtEQAAAABJRU5ErkJggg==;" vertex="1" parent="1">
          <mxGeometry x="871.77" y="50" width="296.43" height="120" as="geometry" />
        </mxCell>
        <mxCell id="I8OUwgIoea2aEwMqdT0k-6" value="" style="endArrow=none;html=1;" edge="1" parent="1">
          <mxGeometry width="50" height="50" relative="1" as="geometry">
            <mxPoint x="400" y="40" as="sourcePoint" />
            <mxPoint x="589.33" y="40" as="targetPoint" />
          </mxGeometry>
        </mxCell>
        <mxCell id="I8OUwgIoea2aEwMqdT0k-11" value="" style="shape=image;verticalLabelPosition=bottom;labelBackgroundColor=#ffffff;verticalAlign=top;aspect=fixed;imageAspect=0;image=data:image/png,iVBORw0KGgoAAAANSUhEUgAAApMAAAF2CAYAAAAydxNRAAAgAElEQVR4Ae2dD7QcVZ3nax0ms3tcGf+s63HmnJ3RnbPL/HF29mR8a+K6Hh3RdTPjruyoRwQnT8IDheRldMbhj4qAQ544mj9C+KNIgorE9yAQ4Akkgfwhf5CQBy+YCM+YjcAmgsDzzbroOvjbc6v7Vt+6VdXdt7ur61bXJ+e8U6+7b1fd+tS37v30r6pfgiNHjsjo6KjwDwIQgAAEIAABCEAAAu0SUP546NAhCQ4fPoxMtkuNdhCAAAQgAAEIQAACIQElk48++qgEjz/+ODJJKCAAAQhAAAIQgAAEnAgomXzkkUckeOyxx5BJJ3Q0hgAEIAABCEAAAhBQMjk1NSXBlnu3yxlLzoQIBCAAAQhAAAIQgAAE2iag/HHTHd+pXeZevnx522+kIQQgAAEIQAACEIAABJQ/hpXJgwcPcpmbPEAAAhCAAAQgAAEIOBFQl7kffPBBCdS3cNSDTv/904svyvdnfiTfvm2nfPaLN8nZf3d1+DN2xc1y+z3flSM/Ot7pqnkfBCAAAQhAAAIQgICnBJQ/PvDAAxIcOHCgI5l84ee/kB/8r2PylRs3y6137ZMdex+T704dlqkDR2T/9BF5YP9h2bbrkNxy53fl+pu2yrEfPye//OU/eYqDbkEAAhCAAAQgAAEIuBBQMrl3714JpqennWXyx8/Myt6HHpdbJh+Qb9y8U7bvfVweO/y0HPvxnDw/+0L489SxOfneY8dk686Dsn58h9x8x145cOio/HTuZy79pC0EIAABCEAAAhCAgIcElEzu3r3bXSZ/8f9+Kbv3PSZX37BZbpjYJY9+/7g8evAJOfT4MXn88NPy0NSMTN69Qx4+cEQOH31OfnDkOdn/6FOydt1mWbfhPpk+eERefPFFD5HQJQhAAAIQgAAEIACBdgkomdy1a5e7TP7oqaflW7feL2uu2ywPHTgm+w78b/nmhrtl4rYdcve9D8vqtd+Qd7zzL2TttRtk14M/DNuodg9OPyWfW3WL3HjLDnn2+bl2+0k7CEAAAhCAAAQgkEkgCAJx+clcUQleUPu5b9++lj1VbVTbvP8pmbz//vvdZfLKdZNy+do75dZ7Dsrm+w/L5H3fl/d9cImc8r7F8onzVsjpH1kmL3/Fq+Sd7z5FvnTlTbJ51w/lnp2HZePdD8vXN35XLr/qDrn+pi2d79/kSDw0I5Pxddmvq5DZbeLv4BEEIAABCEAAAiUl4CJNLm19xKElsZlQttOmV/vWkUz+5Lk5Wf3VSRlbe5fcdMejcuOmR+SLa2+VP5n/Zvk3v/N7cvJ/e78sOfciedmJr5A/eMOfyscvWCXrxvfK5774TTnjY5+SlddOyqWrNsnqa2+XX/3qVx3sy4ysGlklM9E7J2UkCGThqsYzomQSeYwI8QsEIAABCEBgkAm4CKJLW1+ZNZPFZq/lsT8dyeSDj8zIP1xzl/z9lZvl6m/tkyu/+YB89os3yx/Pf6u84lWvkflvOllGL1wrQ/95kbz7lBH55CXr5DNf2CBvf9f75aQ/eqN84jPXyIWXb5TL126SHz/9XE/2a2bVQgkWNgQzfIxM9oQtK4EABCAAAQj4TsBFEF3a+rzfadKY9lze+9CRTF73rc1y6Ze/I59Zdbd8bu1mueSKu+XSK+6R9572CVnwtlPkzz+wVC74wi1yzgVXy3mfH5fPrp6Uvzp3TF7+yn8tJ778X8lHRr8g511+m3zuy5tkx+6H0/cx7TJ1s0vVqj0ymc6SZyEAAQhAAAIDTsBFEF3a+o7NlEfz9372uyOZXPapa+XTqyflgpV3yLmfvk4+8tdfkk+Ojcsla7fK2Nd2y9jX9sjfX7tdLr5yc/jzt2Pj8hen/rX8y998pfz2754kZ51/lXzmiq1y0arb5crrbmlrf+3Ko/2myZH4PZFhe/NmXKqUNjIeQwACEIBABQgocXL5KSsSF0F0aVsGHloi1X6p3/v9ryOZvODvr5Pz10zKJ798t7zvo5fIy1/1Gvnt1/2+vHfJp+WTaybl765Qz18qb3zbKfInb363vGf4PDnz01+V/3n2xbL4vLVywVVb5fy12+TClbfJNdePt97nmVWyMFgo5i2R5ptq4jgi1ldwjCa1eyq5h9JAwq8QgAAEIACBASLgIogubcuAqJQyOXH7dvnUVffI6Nrt8uHPrpfX/fFC+ecvPVH+cMF/lQ+ed5V86MKvyG+97g/kZa94tbz0xFfKa1/3+/If3/Ze+fOzLpbRq++T8785Jeeu2SIXrrlN7t/9UIvjNCOrFlpfrjHeEVYkg2YiWW8cXjZvo52xbn6FAAQgAAEIQKAcBFwE0aWt73uvRVItzd/72e+OKpMzP3xSPrV2Uj6yequc9dVdsuhv1sgfnvwB+S/DF8p7/vZKefMHRuUlv3ZCVFZ/yQknyMte9Rr5d//pZPnQZd+WpV/fL6eP3S7nf2lcfvz0T5rub/bl7Zpktl1tDKubyGRT2LwIAQhAAAIQKCkBF0F0aeszjjR5THsu733oSCZ/8YtfyiVX3iofHNskZ950SEYmHpP3rblL/mrdg/LuC74iv/vGd0QiqQ5YEPwzecmvz5MTf+t18q7zr5EPXbVDPvDZm+TS1Tc1/9NAYTUx/fK2fY9kS1BUJlsiogEEIAABCECgrARcBNGlra88mkljs9fy2J+OZFJ15GvfuFMWf+4mee9Ve+T025+UD9/5VPjzlk+ulVefNF9e8uu/Ib827zfkhH/xUpl34ivlN3/n38vvvfOD8p6rt8m7L7tDzrxknWy4OfsuR5GUvx2pCbS4h1LE+juUYfvsS+V6tSwhAAEIQAACECgnARdBdGnrI412ZLGdNr3at45lcvan/yir139H3rr8q/I/bjkq79vyE3n/fc/LO6+7X/7ojE/Lq//DQnnNn75d/u1/P0Pm/81q+bOr75X33PIDWbT+UXnbx9bIFddvkp/+NPu/U6zdC5nyDTT1rey6HKow2D+1L23XL4Ebr/Nl7l5FhvVAAAIQgAAE/CNg+0Crx/7tQfs9UvumZLHVPy2Urdp1+3rHMqn+55rpgz+UsWtvk7eee5W87Yo98q7vPC3v3PwTeevE9+VNX9kpC67bJW+58RF5+60/lD8b/4G89Qtb5O0fWy1fuOZmOXDwB80vcXe7Z7wfAhCAAAQgAAEIQCB3Ah3LpOrZz372f+XAwcOy5vo75LTLbpK3X7ZJFn7pPnnztfvkLd/4vrzlhoPy5qsekIX/sFnecenNMnzpDXLF126VAwdnwvfmvndsAAIQgAAEIAABCEAgVwJdyaTqmapQzv3j/5EbJ+6SCz6/XkYuWS+nrxiXv7x8k/zl2EY57XM3ypmfuU4+9fnrZeOme2T2p3Py4osv5rpTrBwCEIAABCAAAQhAoD8EupZJs5s///nP5amnjsmu3d+Vr93wbVn3jXG5f9deeeKJJ+SFF14wm/I7BCAAAQhAAAIQgMAAEOipTA4AD3YBAhCAAAQgAAEIQMCBADLpAIumEIAABCAAAQhAAAJxAshknAePIAABCEAAAhCAAAQcCCCTDrBoCgEIQAACEIAABCAQJ4BMxnnwCAIQgAAEIAABCEDAgQAy6QCLphCAAAQgAAEIQAACcQLIZJwHjyAAAQhAAAIQgAAEHAggkw6waAoBCEAAAhCAAAQgECeATMZ58AgCEIAABCAAAQhAwIFAQiaveURkkH4cWNAUAhCAAAQgAAEIQMCRQKpM7jsuMgg/Sor5BwEIQAACEIAABCCQHwFkMj+2rBkCEIAABCAAAQgMPAFkcuAPMTsIAQhAAAIQgAAE8iOATObHljVDAAIQgAAEIACBgSeATA78IWYHIQABCEAAAhCAQH4EkMn82LJmCEAAAhCAAAQgMPAEeiCTk3JKMCKru/gG+OrTA3nDxTP1b5Cr9QVyyo3df6Pc9dvcMysXSBAExs+ITA58BNrfwSSfQBasnGl/BbSEAAQgAAEIQGDgCHQuk3tXyhti4qUkbIF8fG8nElgTSC1yDbHsZF2N97QvkzOycoHqvyWPkyMygk1GoQ9l0gQys1IWBAGMIkL8AgEIQAACEKgegc5k8sYRQxyNymRdMHtRVezF37lsVyZDSVqwUqixNT8BEjIpIpMjgQSmYDZfBa9CAAIQgAAEIDBgBDqQSfsytCGTx0U2XrxAgvkrZaO+7G1XMM3XjouoS9xx+ZyRj88PJDh9Mv6H00OBNS5BW+tJk8/2ZHJSRtqoroXSlKjExkVKtVGXfWOXg21JrVfzdBU2sF5P207D1WoVVPtxVFFtse5us5slk+albs0gbVvm+2uMzEpwvTrc2Lk4R8XeeC1a/6T6YNPIhdmXqA2/QAACEIAABCCQGwF3mQzl0LxHMi6T+8LXG5e7N148Ylz6ToqiLZOhjCo5SJPJ+nMJYdXiai3bkslQRkypSWedJkmmHKl3aRFsCE2aII1I4zbD5OuJ7aj+RcIZl8lwe9FrIjMrm687fc/af9beX0lhl+i/sfr4+2v7olmFr8X2Rd2/ah6XJKtw1aoPdclstm2jG/wKAQhAAAIQgEAPCbjLZFghbCKTx+3KZeMexrB6qN5vVBVjMqlF9OKRhEyGAlkGmbSrZ2G1cIEhkNbRi8liTUi1YKmWcclqyKQtktZaaw+tdae2cXgy7ItRBVQVQXt3mwldXCbDnZMFoTCq6rDJyH5c72TI0hTMGh/Nq9m2HXaTphCAAAQgAAEIOBBwl0nHyqQSyKjaqEUkVSZrVcvwyzdKOK3KpPmNb58rk1psGscgKUYJKTMqcqEkak5qGbO1ejVvgV21a2yt2bobrTr7LSGDkqwWJvpvCGfy/Y1qbmw/UyqetR4nWartaUTIZGfHlXdBAAIQgAAEuiHgLpPHa9LXuM8xfpk7Lnq1KqVZidyXUZmMvS8hk/Ftxtpal7bNeyfbuszdqnJYp5smKrYcpbURMQVI/R4Yl63Da+Oxx4l1xMTKlEmzkqc62Xrd3QRFvdfe33B9Fr9m/U97f/hcULvXNOpfbJ+jZ+v7aO63yTZZ1TXfye8QgAAEIAABCORDoAOZFAmFMPozQIZMKgmMnhep3T9pXhJPfkEnvMx9uvW+hEwa29CVTqO6aQqk+XtbMplSXUtDnZCkFLlSbWIVNrUiU4wyLtM27olMEyJTmBqXuWsSZohVG+tO2y+X59JkUKztJjk1+p94v35vuLT3xXisO6nb68eKrVXVTVaGdWOWEIAABCAAAQjkQSCSycm7NssZS84UJWCmkGX+Hl7ubnyLtvaN2sYXb8L36Xsg9d+e1O8xRFDJpHpv7G9LWjIZViKNy949rUyGVFOqeup54+9MJiUpWakLZdK4rKurhZHgpEpTvFKZ2I4po3Xx1Zd1a0JZv4ewjXV3G6CEDKaIeLP+x99fr7LWv40UvmaJYdoXcCKWFova4bIqnN3uMO+HAAQgAAEIQKAlAeWP357YKMH09LQos2xbJqPLy/GqoS2fofjpewCVRCpRtGXSeBy+P5LJ+re/rf9hp/cyqTjV7//TfbUuRyckKaMyuWDlZP0PoNdFW5tf/VDUBLD+mpKnlOqa+aduVKXX/va3uUpTYFutu2UaWjSIrV9zMjsT+rf9AaNxT2P4/nr7sN+GPCbEW/PV24ldCk85VqntWuwQL0MAAhCAAAQg0DWBZcuWyY6dO7uRyTYrmZF89q99e5e5u2YYrSBNOKMX+aWHBJRMmpLdWLUS1kb1svE8v0EAAhCAAAQgkA8BZLKHXJHJHsJsuipksikeXoQABCAAAQj0kQAy2UPYyGQPYbIqCEAAAhCAAARKQQCZLMVhopMQgAAEIAABCEDATwLIpJ/HhV5BAAIQgAAEIACBUhBIyOTqB16QQfqZm5sTfmBABsgAGSADZIAMkIF8MpCQyXXr1gk/MCADrTMwOzsr/MCADJABMkAGqp6BVJmsOhT2n4GhVQaUbLdqw+vkiAyQATJABqqQAWSS6hJS1EEGkEkmiCpMEOwjOScDZKCdDDSVyX7eW2B2tp/bZVv53D8xqFx1TpFJBlidBZZkgQyQgapnAJnkCzp8QckhA3rAQCaZPHQWWJIFMkAGqp4BZNJBJAa12sZ+tV+d1QOGksknn3xSjh8/Ls8884w899xz8vzzz3PLQAe3DGimLJmQyQAZIAPlzAAyiUxSmXTIgB7olEzu27dPDh48KE888UQolMhkOQdBfUxZcvzIABkgA51lAJl0EAkqeO1X8AaVlR5olExu2LBBNm/eHArlsWPHwuqkfp1lZwMS3OBGBsgAGShfBpBJZJLKpEMG9CCnZHLNmjWhUKoKpbrkrS5169dZlm8w5JhxzMgAGSADnWUAmXQQiUGttrFf7Vdc9UCjZHJsbExuuOEG2bt3b3ip+9lnn0UmuWeSDJABMkAGKpeB0snkxHAgQWD8DI3JFEJIdbFPGTBl8rLLLpP169cjk0wclZs49HnAsrMqDtzgNmgZKJFMTsiwkkhLHmtyOSwTfZIJqnjtV/EGkZUeAFRlEplkQtB5YEkWyAAZqHIGSiOToTRaIqllJXxteILqHEKdewb0YIFMMnHoLLAkC2SADFQ9AyWRyVpVcngioyo2NSZDwZCMTU3J2JBxCVxfDg8ltPZaYx26ba2qqYR0aGxKpsaGGpfRLXnVbbTEmsvwfaHQ6vVa/aivq9k6zPXxe8axLliY9YCBTDJ56CywJAtkgAxUPQPlkMmJYQmCZpeyk7LZkDstJXGZDKuZhiyGj4OaUNZEri6FRsWzmQgmtzdXE1Pj/Wq9zdaBQOpj5e9SDxjIJJOHzgJLskAGyEDVM1BJmbRFUkteYInfXFTxrMlNMxFEJv0VwF5Kuh4wkEkmD50FlmSBDJCBqmegcjI5NKQuYyernOmiqCqe6vJ5QyZj3yQPAtGXzV1kMmsdvZQe1pWP3OoBA5lk8tBZYEkWyAAZqHoGyiGTVoUwIUopryflrnbZuiaTDUHU62pXJtV9lfo9c8bl9+T22rzMndL3aP0F3x9IP5JCqgcMZJLJQ2eBJVkgA2Sg6hkoh0zW7zVMXIauy1Z42dq6RJ2Uu8Y9k+FrRsVRSVPaOkxZ1G1iMjnXqFwmt9emTIbraFQ4EbikwPnERA8YyCSTh84CS7JABshA1TNQGpmcq0uXLZShBKZctk7KXUMmlZzUhLJxubu2HlPqal/qMeVRtTEfm7KZ3F6bMkllslHpLUElVg8YyCSTh84CS7JABshA1TNQIplUFav6N6z1n/xRS6siqatYSbmLy6RqZwpkTRQn4n9ayFq3bm/e88g9k35XEnUeerXUAwYyyeShs8CSLJABMlD1DJRMJvMTl0TVsQRVsl4JEutpP1d6wEAmmTx0FliSBTJABqqeAWTSuO8ydgkbmSzV5ed+CbEeMJBJJg+dBZZkgQyQgapnAJlEJpFGhw8OesBAJpk8dBZYkgUyQAaqngFk0kEk+lX9YjvtX3buNys9YCCTTB46CyzJAhkgA1XPADKJTFKZdMiAHjCQSSYPnQWWZIEMkIGqZwCZdBCJflfB2J5/FUo9YCCTTB46CyzJAhkgA1XPADKJTFKZdMiAHjCQSSYPnQWWZIEMkIGqZwCZdBAJKoX+VQr7fUz0gIFMMnnoLLAkC2SADFQ9A8gkMkll0iEDesBAJpk8dBZYkgUyQAaqngFk0kEk+l0FY3v+VUL1gIFMMnnoLLAkC2SADFQ9A8gkMkll0iEDesBAJpk8dBZYkgUyQAaqngFk0kEkqBT6Vyns9zHRAwYyyeShs8CSLJABMlD1DCCTyCSVSYcM6AEDmWTy0FlgSRbIABmoegZKJ5NTY0MSBIHxMywTDjLQ70oW2xusaqYeMJBJJg+dBZZkgQyQgapnoEQyOSVjQ0oiLXmcGJbhicESFgTU3+OpBwxkkslDZ4ElWSADZKDqGSiNTIYVyaExmaIKyWXpAjOgBwxkkslDZ4ElWSADZKDqGSiJTE7IcBC0VYFMXAYfnojkq/aaWdmsVzvrbSaGAxkam5LYOmyBnRqTIfMyu/W6XodZXQzXZ/RDtYlXU81+6AqseSk/kKC+nbT1m9vi93yrmnrAQCaZPHQWWJIFMkAGqp6BcsjkxHDy8nZKdaqVLM7N1URNCaOSrrC9IYNK1NT9mPp13T4wRHBqbFjGprSwmBJYey5N9lrJZK3fgZjbifpnbFs9l7Z+BFIfj/yXesBAJpk8dBZYkgUyQAaqnoEBkklVvRwyRK8uFmEl0ahGRo+T7UOZtORtLmyfsl4ts0p0LSFtyGitD01lUq9/bBiZ1Ew9XuoBA5lk8tBZYEkWyAAZqHoGBkcmM6uXGdKoLlVb4phe9Uu+P6ok6svdlkzGv21ev1xtbEttp3aZ26iUqv4bbZpVJu31xy+Z51+dq3IlVA8YyCSTh84CS7JABshA1TOwdOky2b59hwTT09MyOjoqapLUUPopDXqbapnYrq7eRZeXU4TJQSa1DNoVxNYyqcSycf9i2M8uKpNhP7SIOshkrN/tsPG40pc41p73VecUmWTy0FlgSRbIABmoegbOPfdc2XrvvZ7LZP1eR7tyFxORLKkKn0+5zJ3SPvUytymp9roy7ruMyZ5uY1Qdw8rksLoP1Lh83qlMztUEl+pkygeMHMRUDxjIJJOHzgJLskAGyEDVM3D22R+VO++c9F0mlSikVAWVLBh/ZzKUwdjfoTQuI4diEX8cqwzWv9yiLiE3xKy2zUgObQENH8crlWnVzXA7lkzGv+hT2w9blu33KXlOrN/uUw4CFZP2iq9fDxjIJJOHzgJLskAGyEDVM7BkyRKZmJgog0wqoax/e1rfq2hfctZVQOP1SAS1LOrLyqEUxWWxJmoT9T+OnrzXUUlVKHh6/WpdHV7mNr+0E8qaQ2WSeyb7U4VMk2g9YCCTTB46CyzJAhkgA1XPwPLly2XPnj1lkcl8JSJR9at4FS5Npqr+nB4wkEkmD50FlmSBDJCBqmdAyeTOnTuRSSVJyGS+sj4IIqoHDGSSyUNngSVZIANkoOoZQCaN6iMyiUy2El49YCCTTB46CyzJAhkgA1XPADJpyGQrkeB1ZFMPGMgkk4fOAkuyQAbIQNUzgEwik8m/6wmTTCZ6wMiSyQsuuED48YeBPl6+LMmGP9ngWHAsypQBX8awrH4gk4hTpjhRiU1WYvWJ1EwmhX9eEFAThT5evixVn/gHAQhAwIWAj2OZPaYik8gkMumQAX0CIZMuQ2ExbX0cgJHJYrLAViFQZgI+jmV6LtRLZNJBJKjUJSt1VWOiTxxk0v+h2ccBGJn0Pzf0EAK+EfBxLNNzoV4uW7ZMtm3bxp8GqpoUsb+dibE+cZBJ34bbZH98HICRyeRx4hkIQKA5AR/HMj0X6qWSye3btyOTyFVnclU1bvrEQSabD34+vOrjAIxM+pAM+gCBchHwcSzTc6Fecpmby9zcM+mQAX3iIJP+D8Y+DsDIpP+5oYcQ8I2Aj2OZngv1Epl0EImqVeHY32S1Vp84yKRvw22yPz4OwMhk8jjxDAQg0JyAj2OZngv1EplEJqlMOmRAnzjuMjkjqxYGMjLZfNDg1d4R8HEARiZ7d3xZEwSqQsDHsUzPhXq5aNEiUUIZTE9Py+joqKhJUr/Yz8qU3qZaNtvu1NiQBEFg/AzLhIMMNFs3ryUrcTCJM9E5dZHJyZFGXpHJ/g3/Pg7AyGT/jj9bgsCgEPBxLNNzoV6edNJJMm/evDLI5JSMDalJ2ZLHiWEZnohP+AiQpzymxmQoCGrHa2JYgmBIxqY87WvGBxR94rQtk5MjEgQjMimTMhJQmezn4O7jAIxM9jMBbAsCg0HAx7FMz4V6qaqSpZDJsCI5NCZTGZM8AlkuKSvr8dInTtsyGY1lyGSEok+/+DgAI5N9OvhsBgIDRMDHsUzPhXpZEpmckGFd0Wohk4nL4MMT0WXz2mtmZbNe7ay3mRgOZGhsSmLrsAW2Xl2LLrVbr+t1mLIUrs/oh2oTr6aa/dAV2Mal0XBb9e2krd/clv27ah/1tX57QHzbSQmN7b96T9T3Zn1Tx8iqNIbVR5P3XJxt1L7ZepP9s/exn4/1iYNM+j9S+zgAI5P+54YeQsA3Aj6OZXou1MtyyGSKlKQJRCtZnJurSYsSRvX+sL0hg1q89Ou6fUOm1HuGjUuzdQmKZGtO0mSvlUxG8masJ+qf9Vza+tNY6OcS7RVLY591O71szbAmd/Y+zc21lsnwPea2U45rcr3IpG8DW1n64+MAjEyWJT30EwL+EPBxLNMSqZcDJJMpMqOqmGEl0aiORY+T7UOZtOSt9n6r4mZWRy05S8ibllZjvapNVB0M+zMkY2PDRgUwS9jSZVWLYNrS7k9C6Mx9SRPCNIYp+9RaJpO8taxHLFLXi0z6M6SVqyc+DsDIZLkyRG8h4AMBH8cyLZF6OTgymVLlqslVUmJCaYxdvq0Jiy1eWe8Phcz8RrlRbYvWbb5ubUu1qQmUUSlV/TeEU207rUqXtn5TxmyhTLS3thFr78Aw2TfFWe9XXQDN9YW/Jy+5q0vwZv+T60UmfRjMytgHHwdgZLKMSaLPECiWgI9jmZZIvSyHTOrqXbNv/pri0qLapmWwcTm7XZmsCVPsMrHariWT9nptQdIyGT6v36vWY4me/T4lfuq9sfW3YJNon8lpTuYyX0sKebJvhhjX+Ydt9LfvM9cdl8XkeuOvx+Q3dpz7006fONwzWezg2s7WfRyAkcl2jhxtIAABk4CPY5meC/WyHDJZv9fRlq2YWGRJVfh8ymXulPZhFc8Suphg2evS1UMthGmyp9sY6w1lctj60zidymR4aTpe3TO5JGQy61J2dDk75ZJ+1n4b+xRuM2zXqD4ODam/CVpnn8Lb7Kf+HZk0hxB+74aAjwMwMtnNEeW9EKgmAR/HMi2RelkSmVRVp5SqoBIg4+9MhjKo5SWsWtnVsvjjUFwsEYxfdq1tM6oE2kKk5claR9S+XhHeutUAACAASURBVDmzBanWT6vC2KlM2n2qb1PLWUImW1QIWzOsVQDtfdLbiy2tbaWuezj+557aWq+1j7Ft5vyaPnGoTPo/qPs4ACOT/ueGHkLANwI+jmV6LtTLEsmkkpiaDMb+1I0hckoqQhkx7lc0xS6UmVj7uCzWxGui/sfR6xU2q/oWW79alxImY521ddS+La4lxxakZD/ql5jTtmU9F77X2L+4/CYv9Sbbp1QeLQGL7WNgSW+9rb1Pel9jS0sm1Wt2f8zjo15va71Wf2PbzPk1feK4y6Rvw9Pg98fHARiZHPzcsYcQ6DUBH8cyPRfqZclkMilLvRQJJTq23PRy/awr3+PXD776xEEmez1c9n59Pg7AyGTvjzNrhMCgE/BxLNNzoV4ik0YlC5ksv+zlLZT6xEEm/R++fRyAkUn/c0MPIeAbAR/HMj0X6iUyiUxG/0NQ3iI2COvXJw4y6dtwm+yPjwMwMpk8TjwDAQg0J+DjWKbnQr1EJg2ZHATZYR/yra7qEweZbD74+fCqjwMwMulDMugDBMpFwMexTM+FeolMIpNUJh0yoE8cZNL/wdjHARiZ9D839BACvhHwcSzTc6FeIpMOIkHVL9+qXxn46hMHmfRtuE32x8cBGJlMHieegQAEmhPwcSzTc6FeNpVJ3YjlrMAABmYGkMnmg58Pr/o4ACOTPiSDPkCgXAR8HMvM+VD9rmTyhBNOkGB6elpGR0dFTZJ2Ix4jUmQgnoFmMqlOfH78YOBbbpHJck3i9BYCPhAorUyqiZIfGJCB5hm47LLLZP369bJ371554okn5Nlnn+WD2Gxcun2TuaL7g0z6MDXTBwiUi0BZZHLevHmNymTaYPvkk0/Kvn37ZMOGDbJmzRoZGxsTNZHyA4MqZ0CdC+qcUOeGOkeee+45ZBKZbJoBZLJckzi9hYAPBAZGJo8fPy4HDx6UzZs3h5PnDTfcEFZkVFWGHxhUNQNKJNU5oc6NY8eOIZOIZFORVB/UkUkfpmb6AIFyERgYmXzmmWfCy3hq0lRVGHVZjx8YVD0D6lxQ54S6xK3Okeeff76lTKRV/nmuOpfGkclyTeL0FgI+EBgYmVSX79Rkqaov6nKemjz5gUHVM6DOBVW1V+eGOkeQyepIYacfAJBJH6Zm+gCBchEYGJlUk6T6UROm+lFfNOAHBlXPgD4f9PnRqWDwvupIKDJZrkmc3kLABwIDI5NMdtWZ7DjWHGsykF8GkEkfpmb6AIFyEUAmuSGfe+jIABkgA1EGkMlyTeL0FgI+EEAmmUSiSYRqT37VHtjCtiwZQCZ9mJrpAwTKRQCZRCaRSTJABshAlAFkslyTOL2FgA8EkEkmkWgSKUvlhH5S5SMD+WUAmfRhaqYPECgXAWQSmUQmyQAZIANRBpDJck3i9BYCPhBAJplEokmEak9+1R7YwrYsGUAmfZia6QMEykUAmUQmkUkyQAbIQJQBZLJckzi9hYAPBJBJJpFoEilL5YR+UuUjA/llAJn0YWqmDxAoFwFkEplEJskAGSADUQaQyXJN4vQWAj4QKINMLlq0SObNmyfB9PS0jI6ORoMe1Yn8qhOwhS0ZqGYGkEkfpmb6AIFyESiDTJ500kny+te/Hplkcq/m5M5x57j3MwPIZLkmcXoLAR8IlEEmly9fLjt37kQm+zmhsC0EhgxUMwPIpA9TM32AQLkIIJPcK8VtA2SADJCBKAPIZLkmcXoLAR8IlEEmly5dKtu2bRucyqSCzo8/DKpWgSN7/mTPxwFY9Yl/EIAABFwI+DiW2XO7usy9Z8+ewZJJl4NE2/wIlOEEsE+Ibh8jC/nlyXXNPuaPfLgeRdpDAAI+jmX2XIlMktPcCJThBLBPiG4fIwu5xcl5xT7mj3w4H0beAIHKE/BxLLPnSmSy8jHND0AZTgD7hOj2MbKQX55c1+xj/siH61GkPQQg4ONYZs+VyCQ5zY1AGU4A+4To9jGykFucnFfsY/7Ih/Nh5A0QqDwBH8cye65EJisf0/wAlOEEsE+Ibh8jC/nlyXXNPuaPfLgeRdpDAAI+jmX2XIlMktPcCJThBLBPiG4fIwu5xcl5xT7mj3w4H0beAIHKE/BxLLPnSmSy8jHND0AZTgD7hOj2MbKQX55c1+xj/siH61GkPQQg4ONYZs+VFZLJGVm1MJCRSYLZLwJlOAHsE6Lbx9myQP76lTu9HR/zl50P3WuWEIAABOIEfBzL7LmyEjI5ORJIENR+kMl4SPN8VIYTwD4hun2cJgvkL8+UZa/bx/yl5SN7D3gFAhCAgIT/EUu3c1Pe7++/TI4vjsQuFLzF49F/NdaLnU0M1pMjEgQjMimTMhJQmeznienjZD5L/voZgUK35WP+EuNToYTYOAQgUAYCPo5ltq/1WSb3y4rFK2R/9H/1jsviIJChFft7JpTZgzUy2e+Txr8TgPz1OwNFbs+//M2GFYYimbBtCECgfAR8HMsKlsnZhDTuXzEkwZApmMk2dqebPUYm/TlRynACkD9/8tLrnviYv+zxqdd7z/ogAIFBIeDjWGZ7WM8rk+HkHCyW8aj6uF9WDAUSZF3OVpcdtUzuXyFDwZCs2N+5UGYP1lQm+31iFXECjC9OZq2pMJK/fseib9srIn/2AGs/zh6f+oaFDUEAAiUj4ONYZo9tPZfJ2dmaPOpL100n8tlZiU3+yGTJIt68u4WcAKYchh9oanlcPJ7+AYX8NT+GZX61kPxFH6LT84ZMljlR9B0CxRDwcSzrg0zOymwohao6qe6JzK40JquY6QOw3elmj7MHayqT/T4NijkBrMxFWUxmi/z1OxH93V4x+UvmzByvssen/rJhaxCAQHkI+DiWmeOa+j2HymRtMA0rPurP8WRc3q69bl4Obz4I2x3Pepw9WCOT/T51ijoBVLZilfGUDJK/fqeh/9srKn9ZY5N6Pnt86j8ftggBCJSDgI9jmT3O5SaTtapPY1JvbLjFPZQtLhM11pMun9mDNTLZ79OmsBMgutSddomb/PU7B0Vtr7D8NRnDssenoiixXQhAwHcCPo5ltovlI5P60mLKPZBhRSilUmR3rNPH2YM1MtnvE6a4E6B+qXtcfaErXv0mf/1OQXHbKy5/6R901ZiWPT4Vx4ktQwACfhPwcSyzHS0HmaxVfmKXGdv9tnaKfNodbvWYwdqfk6LIEyC81D00FL/NolW+Wr3epOKkc0n+yJ/OQtqSfPiTD3oCgbIQKHIuTRvH0p7ruUyGlR8tj+Hka/xh8nCybvzXhvq/OFTL8Nu2TOZlyXZb/Sz0BEjLEvlr67gNSqNC85fxwQOZHJR0sR8Q6B8BH8cyWyh7LpP2Bvr9mMG6fwFvtaVCT4DovsnsS455ZJP8tUpF/14vNH/IZP8ONFuCwIAT8HEss+dPZHLAQ1jk7hV3AsRvtbBDn+djZLLIxMW3XVz+sj/AkI/4MeIRBCDQmoCPY5k9jyKTrY8jLTokUMQJEN5m0eRPUtknQK8fIwsdhiWHtxWRv1Z5Ih85HGhWCYEBJ+DjWGaPdcjkgIewyN0rwwlgnxDdPkYWikxcfNs+5o98xI8RjyAAgdYEfBzL7LkSmWx9HGnRIYEynAD2CdHtY2Shw7Dk8DYf80c+cjjQrBICA07Ax7HMniuRyQEPYZG7V4YTwD4hun2MLBSZuPi2fcwf+YgfIx5BAAKtCfg4ltlz5ejoqOzevVuC6elpUQ/sBmV7rKDz4w+DsuWn2/6SPX+y5+MArPrEPwhAAAIuBHwcy+y58pxzzpEtW7YMjkzaO8jj7G+WwgY2ZKC/GUAmXaZQ2kIAAooAMpnxt9aYwPo7gcEb3mTAjwwgk8gBBCDgSgCZRCZLf9sAEuKHhHAcBuM4IJOu0yjtIQABZBKZRCbJABkgA1EGkEnEAAIQcCWATDKJRJMIlaXBqCxxHDmO3WQAmXSdRmkPAQggk8gkMkkGyAAZiDKATCIGEICAKwFkkkkkmkS6qWbwXqphZGAwMoBMuk6jtIcABJBJZBKZJANkgAxEGUAmEQMIQMCVADLJJBJNIlSWBqOyxHHkOHaTAWTSdRqlPQQggEwik8gkGSADZCDKADKJGEAAAq4EkEkmkWgS6aaawXuphpGBwcgAMuk6jdIeAhBAJpFJZJIMkAEyEGUAmUQMIAABVwLIJJNINIlQWRqMyhLHkePYTQaQSddplPYQgAAyiUwik2SADJCBKAPIJGIAAQi4EkAmmUSiSaSbagbvpRpGBgYjA8ik6zRKewhAAJlEJpFJMkAGyECUAWQSMYAABFwJIJNMItEkQmVpMCpLHEeOYzcZQCZdp1HaQwACyCQyiUySATJABqIMIJOIAQQg4EoAmWQSiSaRbqoZvJdqGBkYjAwgk67TKO0hAAFkEplEJskAGSADUQaQScQAAhBwJYBMMolEkwiVpcGoLHEcOY7dZACZdJ1GaQ8BCCCTyCQySQbIABmIMoBMIgYQgIArgTLI5Ic//GG5/vrrJZienpbR0dFo0Ovm0zfvpXpDBsgAGUhmAJl0nUZpDwEIlEEmly9fLnv27EEmmfiSEx9MYEIGepsBZBIxgAAEXAkgk1zeotJLBsgAGYgygEy6TqO0hwAEkEkmkWgSocLT2woPPOFZxgwgk4gBBCDgSgCZRCaRSTJABshAlAFk0nUapT0EIIBMMolEk0gZqyj0meofGehtBpBJxAACEHAlgEwWIJMKOj/+MKiajJA9f7Ln4wCs+sQ/CEAAAi4EfBzL7Ll94L7NzWDtEtF825bhBLBPiG4fk798M+Wydh/zRz5cjiBtIQABRcDHscyeK5FJspobgTKcAPYJ0e1jZCG3ODmv2Mf8kQ/nw8gbIFB5Aj6OZfZciUxWPqb5ASjDCWCfEN0+Rhbyy5Prmn3MH/lwPYq0hwAEfBzL7LkSmSSnuREowwlgnxDdPkYWcouT84p9zB/5cD6MvAEClSfg41hmz5XIZOVjmh+AMpwA9gnR7WNkIb88ua7Zx/yRD9ejSHsIQMDHscyeK5FJcpobgTKcAPYJ0e1jZCG3ODmv2Mf8kQ/nw8gbIFB5Aj6OZfZciUxWPqb5ASjDCWCfEN0+Rhbyy5Prmn3MH/lwPYq0hwAEfBzL7LmyQjI5I6sWBjIySTD7RaAMJ4B9QnT7OFsWyF+/cqe342P+svOhe80SAhCAQJyAj2OZPVdWQiYnRwIJgtoPMhkPaZ6PynAC2CdEt4/TZIH85Zmy7HX7mL+0fGTvAa9AAAIQ4O9MFvJfCSYG68kRCYIRmZRJGQmoTPbzxPRxMu9WFlu9n/z1M2HNt+Vj/hL5aL4LvAoBCECAP1reauLN4/XswRqZ7Pc56eNknkfmzHWSv36nLHt7PuYvOx/Z+8ErEIBAtQn4OJaZ8576vRKXuWsxRCb7fTqW4QSwT4huH2fLAvkjf7NhhaHfHNgeBCBQbgJlmEv7L5Pji6P7F9V9jEMr9vf0cjiTuT8njZcnAPnzJyA598TH/GWPTznDYPUQgEBpCfg4ltmFl77L5PjixTI+O1sXyHFZHASyeFw/7n6ZPVhTGer3meTjCUD++p2C4rbnY/6yx6fiOLFlCEDAbwI+jmWFy6TdgfHFgQSLx3tWncwerJHJfp8uZTgByF+/U9G/7fmYv+zxqX9c2BIEIFAuAj6OZbbL9bwyuX/FkASBWX3cLyuGsoVRTebRpe79K2QoGJIV+zuvUGYP1shkv0+fIk6ANDkMMzm0QvZHFfFGvshfv1PRv+0VkT97gLUfZ49P/ePCliAAgXIR8HEss8e2nsvk7GxNHrUgNpvIZ8P71wzxRCbLlfAWvS3kBFCZioljLY+pt1KQvxZHsNwvF5K/lA8s5qCLTJY7U/QeAkUQ8HEsM8c19XsOMjkrs6EUKklU90TalcbafZLhHxGPTfqNapHdSZfH2YM1lcl+nwTFnABW5qIs6nyRv37noKjtFZM/nbP0Zfb4VBQltgsBCPhOwMexzPayfGRydlbCy43qf51pdj9kONEbl7lbfKq3O5/2mMHan9OiqBPAvHQdVsazMkj+/AlLDj0pKn9p45J+jvEphwPNKiEw4AR8HMv0mKaXuclk7d7JNkTRvtTYpVAyWPtzVhV2AkSXuptc4tY5I3/+BKbHPSksfzpbKUvGpx4fZFYHgQoQ8HEs0xKpl/nIpL60GC7ty9zW5R8m84E9FYo7AeqXusfVF7qMe3JTJvfEfbtpbRyeQxb8iXNx+bPGOCM/5MOffNATCJSFgI9jmZZIvcxBJpt9AWdcVsT+SHnt/jX9ZZ3avZYt5NMYmPVOmEsGa39OjyJPgPBS99CQdZsF+fMnHfn3pMj8mWOS+TvjU/7HnS1AYNAI+DiWmeOa+r3nMhneKxn7Yo0pjDXRDL98o+6ntP8HnHYqmchkac6TQk+A1CyRv9KEpwcdLTR/GeMUMtmDA8sqIFAxAj6OZbnLpL2Bfj9msPbnLCv0BIjum8y+5JhHNskf+WuWK/LhTz7oCQTKQqDQuTTjg7E9zvW8MmlvoN+PGaz9OT2KOwHit1r0M4Pkj/w1yxv58Ccf9AQCZSFQ3FzafjEGmSxLmkrYzyJOgLb+JFWbn7SaSUHWa8iCP0EtIn9ZudDPkw9/8kFPIFAWAj6OZXpM08uBlEkFnh8/GOigVWVJ7vzInT4OvuVO9Yt/EIAABFwIqHHDt7HM7s/AyaS9gzxuv0wNK1iRgXwzgEy6TKG0hQAEFAFkMsfLiUx6+U568IUvGeh9BpBJ5AACEHAlgEwik96XphGG3gsDTGGalQFk0nUapT0EIIBMIpPIJBkgA2QgygAyiRhAAAKuBJBJJpFoEsmqVPA8VSwyUJ0MIJOu0yjtIQABZBKZRCbJABkgA1EGkEnEAAIQcCWATDKJRJMI1afqVJ841hzrrAwgk67TKO0hAAFkEplEJskAGSADUQaQScQAAhBwJYBMMolEk0hWpYLnqWKRgepkAJl0nUZpDwEIIJPIJDJJBsgAGYgygEwiBhCAgCsBZJJJJJpEqD5Vp/rEseZYZ2UAmXSdRmkPAQggk8gkMkkGyAAZiDKATCIGEICAKwFkkkkkmkSyKhU8TxWLDFQnA8ik6zRKewhAAJlEJpFJMkAGyECUAWQSMYAABFwJIJNMItEkQvWpOtUnjjXHOisDyKTrNEp7CEAAmUQmkUkyQAbIQJQBZBIxgAAEXAkgk0wi0SSSVangeapYZKA6GUAmXadR2kMAAsgkMolMkgEyQAaiDCCTiAEEIOBKAJlkEokmEapP1ak+caw51lkZQCZdp1HaQwACyCQyiUySATJABqIMIJOIAQQg4EoAmWQSiSaRrEoFz1PFIgPVyQAy6TqN0h4CEEAmkUlkkgyQATIQZQCZRAwgAAFXAsgkk0g0iVB9qk71iWPNsc7KADLpOo3SHgIQQCaRSWSSDJABMhBlAJlEDCAAAVcCyCSTSDSJZFUqeJ4qFhmoTgaQSddplPYQgAAyiUwik2SADJCBKAPIJGIAAQi4EkAmmUSiSYTqU3WqTxxrjnVWBpBJ12mU9hCAADKJTCKTZIAMkIEoA8gkYgABCLgSQCaZRKJJJKtSwfNUschAdTKATLpOo7SHAASQyYJkMjjvkPADAzJABlQGfJJ1ZBIxgAAEXAkgk8gkUovYk4GCM4BMuk5dtIcABHwigEwWLJNHjx4VfmBABqqZAV2ZRiZ9mhbpCwQg4EoAmUQmkVmEngwUlAFk0nXKoj0EIOAjAWQSmUQkChIJqpHVrEaaxx2Z9HFapE8QgIArAWQSmUQmkUkyUFAGkEnXKYv2EICAjwSQSWQSkShIJMwKFb9Xs0qJTPo4LdInCEDAlQAyiUwik8gkGSgoA8ik65RFewhAwEcCyCQyiUgUJBJUI6tZjTSPOzLp47RInyAAAVcCyCQyiUwik2SgoAwgk65TFu0hAAEfCSCTyCQiUZBImBUqfq9mlRKZ9HFapE8QgIArAWQSmUQmkUkyUFAGkEnXKYv2EICAjwSQSWQSkShIJKhGVrMaaR53ZNLHaZE+QQACrgSQSWQSmUQmyUBBGUAmXacs2kMAAj4SQCaRSUSiIJEwK1T8Xs0qJTLp47RInyAAAVcCyCQyiUwik2SgoAwgk65TFu0hAAEfCSCTyCQiUZBIUI2sZjXSPO7IpI/TIn2CAARcCSCTyCQyiUySgYIygEy6Tlm0hwAEfCSATCKTiERBImFWqPi9mlVKZNLHaZE+QQACrgSQSWQSmUQmyUBBGUAmXacs2kMAAj4SQCaRSUSiIJGgGlnNaqR53JFJH6dF+gQBCLgSQCaRSWQSmSQDBWUAmXSdsmgPAQj4SACZRCYRiYJEwqxQ8Xs1q5TIpI/TIn2CAARcCSCTyCQyiUySgYIygEy6Tlm0hwAEfCSATCKTiERBIkE1sprVSPO4I5M+Tov0CQIQcCWATCKTyGQTmdx+0XwJTl2XymjdqYHMv2h76mumMPA70piVAWTSdcqiPQQg4CMBZBKZRIaQSTLQJANZItiL55FJH6dF+gQBCLgSQCaRSUSiiUhQmaSq2AtpzFoHMuk6ZdEeAhDwkQAyiUwik72Sye0XyfwgkED/zL9ItkfrXienBvPlou2GnK07VYLgVFmn22S+f7tcNN9Yr7V+LrcbTDXLkiyRSR+nRfoEAQi4EkAmkUlksol4uFQmt190qiGLdQGM7rdsLZPN318TprT+IJPI5GwPxzE1KfAPAhCAgAsBZLKHg7DLgK4rElmXv3jeD0EI5U1XAlOWTb+AoyqPUXWytUwmjnns/chkgk+TDwFlaavHAZexI++2yKTLFEpbCEBAEUAmkUkqk02kJK0SqEUlrSKYkM+YTAZy6jpDku3L3EePSvb7m8tkdGm9Lryx7TTZP70vLI3j0kdeyCQTMQQgMAgEkElkEplsIg/ty6SqPAZGJfKoHI1VFmuXvc1KZk0c9T2Trd7fXCbN9R4N77207s9sso+IZDEiqbgjk4MwjbIPEIAAMolMIpNNRKttmQwFTouhIX5RZfKo1CSv8UWa+fPnN76A0877deUyug+ztp1khbQmplQni5PEdgUdmWQShgAEBoEAMolMIpM9k0mjGqi/mW3KpL0d8zK3XU3MeH+a3CZk0l6XvV0ee5N5ZHIQplH2AQIQKINMnnnmmbJx40YJpqenZXR0VPK+Ab0f69eTSLsVDNoVU2VKkzd9LGyJq122rlcelUTGLnOn9N+USV111F/yyXh/Wn9UP7hnMoVvCaRZjwP9GHPa3YaaFPgHAQhAwIVAGWRy8eLF8vWvfx2Z1BLDspziwHHjuNkZQCZdpivaQgACvhIog0yec845smXLFmTSnoh4jJyQgXJnAJn0dWqkXxCAgAsBZJJ7Jr25fwwxKrcYcfzcjx8y6TJd0RYCEPCVADKJTCKTJbi3DlFzF7UyMEMmfZ0a6RcEIOBCAJlEJpFJZJIMFJQBZNJluqItBCDgKwFkEplEJAoSiTJUzuhjvhVRZNLXqZF+QQACLgSQSWQSmUQmyUBBGUAmXaYr2kIAAr4SQCaRSUSiIJGg6pdv1a8MfJFJX6dG+gUBCLgQQCaRSWQSmSQDBWUAmXSZrmgLAQj4SgCZRCYRiYJEogyVM/qYb/UUmfR1aqRfEICACwFkEplEJpFJMlBQBpBJl+mKthCAgK8EkElkEpEoSCSo+uVb9SsDX2TS16mRfkEAAi4EkElkEplEJslAQRlAJl2mK9pCAAK+EkAmkUlEoiCRKEPljD7mWz1FJn2dGukXBCDgQgCZRCaRSWSSDBSUAWTSZbqiLQQg4CsBZBKZRCQKEgmqfvlW/crAF5n0dWqkXxCAgAsBZBKZRCaRSTJQUAaQSZfpirYQgICvBJBJZBKRKEgkylA5o4/5Vk+RSV+nRvoFAQi4ECiDTC5btky2bdsmwfT0tIyOjspsQQLYy+3qSYTJOt/JGr7w9TkDehzo5djS7brUpMA/CEAAAi4EyiCTy5cvl507dyKTPk+K9A1pIwPuGUAmXaYr2kIAAr4SQCYLqnLqSYQJ2H0ChhnMBiUDehzotprYy/dTmfR1uqZfEPCXADKJTHLPJPdMkoGCMoBM+js50jMIQKB9AsgkMolIFCQSg1JdYz86rxQjk+1PVrSEAAT8JYBMFiyTejJheUhgAIOqZqCXl6m7XReXuf2dsOkZBHwlgEwik0jceUhcVSXOl/3uVgB7+X5k0tfpmn5BwF8CyGRBMtnLwZ91zQ7En4viOHIcfciAmhT4gQEZIAOuGfBh/GrWh6VLlw7e35lstsO8hlSQATJABsgAGSADZKB3GVB/p3z79u2D9XcmCUjvAgJLWJIBMkAGyAAZIAPNMjCQf7S82Q7zGicEGSADZIAMkAEyQAZ6lwFkkvs6uSeSDJABMkAGyAAZIAMdZwCZJDwdh4dPdb37VAdLWJIBMkAGyEBZM4BMIpPIJBkgA2SADJABMkAGOs4AMkl4Og5PWT9B0W8+/ZMBMkAGyAAZ6F0GkElkEpkkA2SADJABMkAGyEDHGVB/GmjHjh38aSA+ofTuEwosYUkGyAAZIANkoDoZ4I+W80mk408iDBTVGSg41hxrMkAGyAAZyMoAl7mRSWSSDJABMkAGyAAZIAMdZwCZJDwdhyfrEwrP8+mVDJABMkAGyEB1MoBMIpPIJBkgA2SADJABMkAGOs4AMkl4Og4Pnzqr86mTY82xJgNkgAyQgawMIJPIJDJJBsgAGSADZIAMkIGOM4BMEp6Ow5P1CYXn+fRKBsgAGSADZKA6GUAmkUlkkgyQATJABsgAGSADHWcAmSQ8HYeHT53V+dTJseZYkwEyQAbIQFYGlixZIuPj4/wPOFmAeJ6ThwyQATJABsgAGSAD2RmgMkllksokGSADZIAMkAEyQAY6zgAySXg6Dg+f0rI/pcEGNmSADJABMlCVDCCTyCQySQbIABkgA2SADJCBjjOATBKejsNTlU9c7CfVBTJABsgAkj79KQAAAx9JREFUGSAD2RlAJpFJZJIMkAEyQAbIABkgAx1nAJkkPB2Hh09p2Z/SYAMbMkAGyAAZqEoGkElkEpkkA2SADJABMkAGyEDHGVi2bJls27aNvzNZlU8P7CeflMkAGSADZIAMkIFeZkDJ5Pbt25HJXkJlXZykZIAMkAEyQAbIQFUyEF3mfuSRR2R0dLTjEmdVgLGfDA5kgAyQATJABsgAGWhkQMnkjh07JEAmG1AICCzIABkgA2SADJABMtBeBpBJbrilGk0GyAAZIANkgAyQgY4zgEwSno7Dwye29j6xwQlOZIAMkAEyMMgZQCaRSWSSDJABMkAGyAAZIAMdZyCSyenpab6AQ5A6DtIgf+Ji36gokAEyQAbIABnIzoCSyZ07d/KngQhJdkhgAxsyQAbIABkgA2QgKwPnnHOObN26FZnMAsTznDxkgAyQATJABsgAGcjOwGtf+1oJgkCCAwcOcJmby9xc5iYDZIAMkAEyQAbIgFMGTjvtNLnuuusk+N73vodMEh6n8PApLftTGmxgQwbIABkgA1XJgLpnct++fRIcOnQImUQmkUkyQAbIABkgA2SADDhlQMnk/v37JXjssceQScLjFJ6qfOJiP6kukAEyQAbIABnIzoCSSfU/KQaHDx8OZVL9/9zt/px11lmybNmy8Gfp0mVy7rnnytlnf1SWLFkiasXNfvT7mrVZunRp2JesNqqfqk3W6/r5Vv2hL+nHCi5w0eeQWnIepefBFy5nnHGGqJvg1bhsHjfzd87p9GMIF7iY50kvzuk3velNsnDhwsxz0dzeoPyubpcMjhw5IjMzM3Lw4EFRX8Z5+OGH5aGHHpIHH3xQHnjgAdm7d6/s3r1bdu3aFf4tIfUfet96661y7333hT9bt94rd99zj2zatEk2bNgQtlF/cyjr57777hP1k/W6en7Lli3hfxye1Ub1QbXJel0/36o/9CX9OMEFLvocUkvOo/Q8+MLlxhtvDL9NuXHjxswxkXM6/RjCBS69HutOPvlkWbRoUea5aG6vDL/ff//9of8pD1Q+qLxQ+aHyROWLjz76qKgr3P8fzbmiYVBB9dgAAAAASUVORK5CYII=;" vertex="1" parent="1">
          <mxGeometry x="184.74" y="340" width="440.51" height="250" as="geometry" />
        </mxCell>
        <mxCell id="I8OUwgIoea2aEwMqdT0k-12" value="" style="endArrow=none;html=1;" edge="1" parent="1">
          <mxGeometry width="50" height="50" relative="1" as="geometry">
            <mxPoint x="450" y="319" as="sourcePoint" />
            <mxPoint x="1080" y="319" as="targetPoint" />
          </mxGeometry>
        </mxCell>
        <mxCell id="I8OUwgIoea2aEwMqdT0k-13" value="" style="endArrow=classic;html=1;" edge="1" parent="1">
          <mxGeometry width="50" height="50" relative="1" as="geometry">
            <mxPoint x="759.29" y="320" as="sourcePoint" />
            <mxPoint x="759.5799999999999" y="355" as="targetPoint" />
          </mxGeometry>
        </mxCell>
        <mxCell id="I8OUwgIoea2aEwMqdT0k-14" value="Открыть:&lt;br&gt;Считать данные из типизированного файла" style="rounded=0;whiteSpace=wrap;html=1;" vertex="1" parent="1">
          <mxGeometry x="860" y="360" width="120" height="60" as="geometry" />
        </mxCell>
        <mxCell id="I8OUwgIoea2aEwMqdT0k-15" value="Сохранить:&lt;br&gt;Сохранить данные в типизированный файл" style="rounded=0;whiteSpace=wrap;html=1;" vertex="1" parent="1">
          <mxGeometry x="1020" y="360" width="120" height="60" as="geometry" />
        </mxCell>
        <mxCell id="I8OUwgIoea2aEwMqdT0k-16" value="Сохранить в отчёт:&lt;br&gt;сохранить отчёт в текстовый файл" style="rounded=0;whiteSpace=wrap;html=1;" vertex="1" parent="1">
          <mxGeometry x="700" y="360" width="120" height="60" as="geometry" />
        </mxCell>
        <mxCell id="I8OUwgIoea2aEwMqdT0k-17" value="" style="endArrow=classic;html=1;" edge="1" parent="1">
          <mxGeometry width="50" height="50" relative="1" as="geometry">
            <mxPoint x="1080" y="320" as="sourcePoint" />
            <mxPoint x="1079.58" y="360" as="targetPoint" />
          </mxGeometry>
        </mxCell>
        <mxCell id="I8OUwgIoea2aEwMqdT0k-18" value="" style="endArrow=classic;html=1;" edge="1" parent="1">
          <mxGeometry width="50" height="50" relative="1" as="geometry">
            <mxPoint x="919.29" y="320" as="sourcePoint" />
            <mxPoint x="919.5799999999999" y="355" as="targetPoint" />
          </mxGeometry>
        </mxCell>
        <mxCell id="I8OUwgIoea2aEwMqdT0k-19" value="" style="endArrow=none;html=1;" edge="1" parent="1">
          <mxGeometry width="50" height="50" relative="1" as="geometry">
            <mxPoint x="280" y="40" as="sourcePoint" />
            <mxPoint x="400" y="40" as="targetPoint" />
          </mxGeometry>
        </mxCell>
        <mxCell id="I8OUwgIoea2aEwMqdT0k-21" value="" style="endArrow=classic;html=1;" edge="1" parent="1" target="I8OUwgIoea2aEwMqdT0k-22">
          <mxGeometry width="50" height="50" relative="1" as="geometry">
            <mxPoint x="280" y="40" as="sourcePoint" />
            <mxPoint x="280.28999999999996" y="75" as="targetPoint" />
          </mxGeometry>
        </mxCell>
        <mxCell id="I8OUwgIoea2aEwMqdT0k-22" value="Выход:&lt;br&gt;выход из программы" style="rounded=0;whiteSpace=wrap;html=1;" vertex="1" parent="1">
          <mxGeometry x="220.28999999999974" y="80" width="120" height="60" as="geometry" />
        </mxCell>
        <mxCell id="I8OUwgIoea2aEwMqdT0k-10" value="Файл" style="rounded=0;whiteSpace=wrap;html=1;" vertex="1" parent="1">
          <mxGeometry x="350" y="300" width="110" height="40" as="geometry" />
        </mxCell>
        <mxCell id="I8OUwgIoea2aEwMqdT0k-25" value="" style="endArrow=classic;html=1;" edge="1" parent="1">
          <mxGeometry width="50" height="50" relative="1" as="geometry">
            <mxPoint x="404" y="40" as="sourcePoint" />
            <mxPoint x="404.28" y="300" as="targetPoint" />
          </mxGeometry>
        </mxCell>
      </root>
    </mxGraphModel>
  </diagram>
</mxfile>
